<svg xmlns="http://www.w3.org/2000/svg" viewBox="0 0 1000 1000" xml:space="preserve"><switch><g><circle fill="#382B73" cx="500" cy="500" r="398"/><circle fill="#473080" cx="500" cy="500" r="344.3"/><path fill="#382B73" d="M700.3 313.6H299.7c-13.8 0-25 11.2-25 25v285.2c0 13.8 11.2 25 25 25h152v56.9h-21.6c-13.8 0-25 11.2-25 25v10.7c0 2.8 2.2 5 5 5h179.8c2.8 0 5-2.2 5-5v-10.7c0-13.8-11.2-25-25-25h-21.6v-56.9h152c13.8 0 25-11.2 25-25V338.6c0-13.8-11.2-25-25-25z"/><g><path fill="#FFC733" d="M700.3 628.8H299.7c-13.8 0-25-11.2-25-25V318.6c0-13.8 11.2-25 25-25h400.6c13.8 0 25 11.2 25 25v285.2c0 13.8-11.2 25-25 25z"/><path fill="#FEDE3A" d="M698.5 620.2h-397c-11 0-20-9-20-20v-278c0-11 9-20 20-20h397c11 0 20 9 20 20v278c0 11-9 20-20 20z"/><path fill="#FFC733" d="M681.8 584.2H318.2c-11 0-20-9-20-20V339.5c0-11 9-20 20-20h363.7c11 0 20 9 20 20v224.7c-.1 11-9 20-20.1 20z"/><path fill="#EF5A9D" d="M679.3 576.5H320.7c-8.3 0-15-6.7-15-15V341.1c0-8.3 6.7-15 15-15h358.6c8.3 0 15 6.7 15 15v220.4c0 8.3-6.7 15-15 15z"/><path fill="#A72973" d="M678.6 326.1H321.4c-8.7 0-15.7 7-15.7 15.7v12.1c0-8.7 7-15.7 15.7-15.7h357.2c8.7 0 15.7 7 15.7 15.7v-12.1c0-8.7-7-15.7-15.7-15.7z"/><path fill="#FEDE3A" d="M569.9 685.6H430.1c-13.8 0-25 11.2-25 25v10.8c0 2.8 2.2 5 5 5h179.8c2.8 0 5-2.2 5-5v-10.8c0-13.8-11.2-25-25-25z"/><path fill="#FFC733" d="M572.9 699.3H427.1c-9.2 0-17.3 4.8-22 12v9.9c0 2.9 2.3 5.2 5.2 5.2h179.3c2.9 0 5.2-2.3 5.2-5.2v-9.9c-4.6-7.2-12.7-12-21.9-12z"/><path fill="#2DBBA5" d="M451.7 628.8h96.6v56.9h-96.6z"/><path fill="#00A58C" d="M451.7 628.8h96.6v15h-96.6z"/><circle fill="#2DBBA5" cx="500" cy="601.9" r="10.5"/><path fill="#00A58C" d="M500 608.4c-5.1 0-9.4-3.7-10.3-8.5-.1.6-.2 1.3-.2 2 0 5.8 4.7 10.5 10.5 10.5s10.5-4.7 10.5-10.5c0-.7-.1-1.3-.2-2-.9 4.8-5.2 8.5-10.3 8.5z"/><g><path fill="#A72973" d="M459.6 488c1 1.4 1.5 3.1 1.5 5 0 3.2-1 5.7-3 7.7s-4.5 3-7.5 3c-1.6 0-3.3-.3-5.2-1l-56.2-21.8c-3.3-1.2-5.8-3.2-7.7-5.9-1.9-2.7-2.8-5.8-2.8-9.4 0-3.4.9-6.4 2.8-9.2 1.9-2.8 4.4-4.8 7.7-6.2l56.2-21.8c1.9-.7 3.7-1 5.2-1 3 0 5.5 1 7.5 3s3 4.5 3 7.7c0 1.9-.5 3.6-1.5 5.1-1 1.5-2.4 2.5-4.2 3.2l-50.1 19.2 50.1 19.2c1.8.7 3.2 1.8 4.2 3.2zM487.5 535.5c-2 1.4-4.2 2-6.7 2-3.2 0-5.9-1-8.3-3-2.4-2-3.5-4.6-3.5-7.8 0-1.4.2-2.6.7-3.9L508 402.5c.9-2.7 2.3-4.7 4.3-6.1 2-1.3 4.1-2 6.5-2 3.1 0 5.9 1 8.4 3 2.4 2 3.6 4.7 3.6 7.9 0 .7-.2 1.9-.7 3.7l-38.3 120.3c-.9 2.8-2.3 4.9-4.3 6.2zM618.5 456.3c1.9 2.8 2.8 5.8 2.8 9.2 0 3.6-.9 6.8-2.8 9.4-1.9 2.7-4.4 4.7-7.7 5.9l-56.2 21.8c-1.8.7-3.5 1-5.2 1-3 0-5.5-1-7.5-3s-3-4.5-3-7.7c0-1.9.5-3.6 1.5-5s2.4-2.5 4.2-3.3l50.1-19.2-50.1-19.2c-1.8-.7-3.2-1.7-4.2-3.2-1-1.5-1.5-3.1-1.5-5.1 0-3.1 1-5.7 3-7.7s4.5-3 7.5-3c1.6 0 3.3.3 5.2 1l56.2 21.8c3.2 1.4 5.8 3.5 7.7 6.3z"/></g><g><path fill="#FFF" d="m455.4 436.2-50.1 19.2 50.1 19.2c1.8.8 3.2 1.9 4.2 3.3s1.5 3.1 1.5 5c0 3.2-1 5.7-3 7.7s-4.5 3-7.5 3c-1.6 0-3.3-.3-5.2-1l-56.2-21.8c-3.3-1.2-5.8-3.2-7.7-5.9-1.9-2.7-2.8-5.8-2.8-9.4 0-3.4.9-6.4 2.8-9.2 1.9-2.8 4.4-4.8 7.7-6.2l56.2-21.8c1.9-.7 3.7-1 5.2-1 3 0 5.5 1 7.5 3s3 4.5 3 7.7c0 1.9-.5 3.6-1.5 5.1-1 1.4-2.4 2.4-4.2 3.1zm71.8-48.7c-2.4-2-5.2-3-8.4-3-2.4 0-4.5.7-6.5 2-2 1.4-3.4 3.4-4.3 6.1l-38.3 120.3c-.4 1.2-.7 2.5-.7 3.9 0 3.1 1.2 5.7 3.5 7.8 2.4 2 5.1 3 8.3 3 2.5 0 4.7-.7 6.7-2s3.4-3.4 4.3-6.1l38.3-120.3c.4-1.8.7-3 .7-3.7 0-3.3-1.2-6-3.6-8zm91.3 58.8c-1.9-2.8-4.4-4.8-7.7-6.2l-56.2-21.8c-1.9-.7-3.7-1-5.2-1-3 0-5.5 1-7.5 3s-3 4.5-3 7.7c0 1.9.5 3.6 1.5 5.1 1 1.5 2.4 2.5 4.2 3.2l50.1 19.2-50.1 19.2c-1.8.8-3.2 1.9-4.2 3.3s-1.5 3.1-1.5 5c0 3.2 1 5.7 3 7.7s4.5 3 7.5 3c1.7 0 3.4-.3 5.2-1l56.2-21.8c3.3-1.2 5.8-3.2 7.7-5.9 1.9-2.7 2.8-5.8 2.8-9.4-.1-3.5-1-6.6-2.8-9.3z"/></g><g><path fill="#D1D3D4" d="M458.2 482.1c-2 2-4.5 3-7.5 3-1.6 0-3.3-.3-5.2-1l-56.2-21.8c-3.3-1.2-5.8-3.2-7.7-5.9-1.1-1.5-1.8-3.2-2.3-5.1-.3 1.3-.5 2.7-.5 4.1 0 3.6.9 6.8 2.8 9.4 1.9 2.7 4.4 4.7 7.7 5.9l56.2 21.8c1.9.7 3.7 1 5.2 1 3 0 5.5-1 7.5-3s3-4.5 3-7.7c0-1.4-.3-2.8-.9-3.9-.6 1.3-1.2 2.3-2.1 3.2zM544.6 436.2l39 15 11.1-4.3-50.1-19.2c-1.8-.7-3.2-1.7-4.2-3.2-.3-.4-.5-.7-.7-1.1-.6 1.4-.9 2.9-.9 4.6 0 1.9.5 3.6 1.5 5.1 1.1 1.4 2.5 2.4 4.3 3.1zM618.5 456.4c-1.9 2.7-4.4 4.7-7.7 5.9l-56.2 21.8c-1.8.7-3.5 1-5.2 1-3 0-5.5-1-7.5-3-.9-.9-1.6-1.9-2.1-3.1-.6 1.2-.9 2.5-.9 3.9 0 3.2 1 5.7 3 7.7s4.5 3 7.5 3c1.7 0 3.4-.3 5.2-1l56.2-21.8c3.3-1.2 5.8-3.2 7.7-5.9 1.9-2.7 2.8-5.8 2.8-9.4 0-1.4-.2-2.8-.5-4.1-.5 1.7-1.3 3.5-2.3 5zM459.6 424.5c-1 1.5-2.4 2.5-4.2 3.2L405.2 447l11.1 4.3 39-15c1.8-.7 3.2-1.7 4.2-3.2 1-1.5 1.5-3.1 1.5-5.1 0-1.7-.3-3.2-.9-4.6 0 .4-.3.7-.5 1.1zM491.8 511c-.9 2.7-2.3 4.7-4.3 6.1-2 1.4-4.2 2-6.7 2-3.2 0-5.9-1-8.3-3-1.2-1.1-2.1-2.3-2.7-3.6l-.2.5c-.4 1.2-.7 2.5-.7 3.9 0 3.1 1.2 5.7 3.5 7.8 2.4 2 5.1 3 8.3 3 2.5 0 4.7-.7 6.7-2s3.4-3.4 4.3-6.1L530 399.3c.4-1.8.7-3 .7-3.7 0-1.6-.3-3-.8-4.3L491.8 511z"/></g><g><path fill="#D1D3D4" d="M594.8 447c6.9 3 6.9 5.8 0 8.5L583 451l11.8-4z"/></g><g><path fill="#D1D3D4" d="M405.3 447c-6.9 3-6.9 5.8 0 8.5l11.8-4.5-11.8-4z"/></g></g></g></switch></svg>