<svg xmlns="http://www.w3.org/2000/svg" viewBox="0 0 64 64"><g data-name="05-Champion"><path style="fill:#c73e36" d="M48 57v6H16v-6h32z"/><path style="fill:#fa7a31" d="M45 49v8H19v-8h26z"/><path style="fill:#fff" d="m39 15.35-3.5 3.58.83 5.07L32 21.61 27.67 24l.83-5.07-3.5-3.58 4.84-.74L32 10l2.16 4.61 4.84.74z"/><path style="fill:#ffab02" d="M17 1h30v4H17z"/><path d="M17 22V10h-7v7a5 5 0 0 0 5 5zm32 0a5 5 0 0 0 5-5v-7h-7v12zm8-15v10a8 8 0 0 1-8 8h-2.3a15 15 0 0 1-10.69 11.45A26.394 26.394 0 0 0 40 49H24a26.394 26.394 0 0 0 3.99-12.55A15 15 0 0 1 17.3 25H15a8 8 0 0 1-8-8V7h10V5h30v2zM35.5 18.93l3.5-3.58-4.84-.74L32 10l-2.16 4.61-4.84.74 3.5 3.58-.83 5.07L32 21.61 36.33 24z" style="fill:#ffcb02"/><path d="M23 22V5h-6v2H7v10a8 8 0 0 0 8 8h2.3a15 15 0 0 0 10.69 11.45A26.394 26.394 0 0 1 24 49h16a26.31 26.31 0 0 1-3.965-12.143A14.993 14.993 0 0 1 23 22zm-6 0h-2a5 5 0 0 1-5-5v-7h7zM47 7v3h7v7a5 5 0 0 1-5 5h-2a15.1 15.1 0 0 1-.3 3.014V25H49a8 8 0 0 0 8-8V7z" style="fill:#ffab02"/><path d="M15 22a5 5 0 0 1-5-5v-7h7V7H7v10a8 8 0 0 0 8 8h2.3v.014A15.1 15.1 0 0 1 17 22z" style="fill:#ff8502"/><path d="M17 1v4h30V3H25a2 2 0 0 1-2-2h-6z" style="fill:#ff9102"/><path d="M19 49v8h26v-3H26a3 3 0 0 1-3-3v-2z" style="fill:#fe4f46"/><path d="M16 57v6h32v-2H23a3 3 0 0 1-3-3v-1z" style="fill:#ad362f"/><path d="M53.19 19.72A6.955 6.955 0 0 1 54 23v21l-3-4-3 4V22h-1v-6a7.017 7.017 0 0 1 6.19 3.72zM10.81 19.72A7.017 7.017 0 0 1 17 16v6h-1v22l-3-4-3 4V23a6.955 6.955 0 0 1 .81-3.28z" style="fill:#9c59a9"/><path d="M53 20h.318c-.044-.093-.08-.19-.128-.28A7.017 7.017 0 0 0 47 16v6h1v22l3-4V22a2 2 0 0 1 2-2zM10.81 19.72c-.048.09-.084.187-.128.28H11a2 2 0 0 1 2 2v18l3 4V22h1v-6a7.017 7.017 0 0 0-6.19 3.72z" style="fill:#593a75"/><path d="M24 0h2v2h-2z"/><path d="M57 6h-9V1a1 1 0 0 0-1-1H28v2h18v5a1 1 0 0 0 1 1h9v9a6.956 6.956 0 0 1-1.264 4 7.8 7.8 0 0 0-.418-1.217A5.948 5.948 0 0 0 55 17v-7a1 1 0 0 0-1-1h-7a1 1 0 0 0-1 1v12a1 1 0 0 0 1 1v1h-.3a1 1 0 0 0-.98.8 14.1 14.1 0 0 1-9.973 10.688 1 1 0 0 0-.731 1.011A27.9 27.9 0 0 0 38.231 48H36v2h8v6H20v-6h14v-2h-8.231a27.9 27.9 0 0 0 3.215-11.5 1 1 0 0 0-.731-1.011A14.1 14.1 0 0 1 18.28 24.8a1 1 0 0 0-.98-.8H17v-1a1 1 0 0 0 1-1V10a1 1 0 0 0-1-1h-7a1 1 0 0 0-1 1v7a5.948 5.948 0 0 0 .682 2.781A7.8 7.8 0 0 0 9.264 21 6.956 6.956 0 0 1 8 17V8h9a1 1 0 0 0 1-1V6h22V4H18V2h4V0h-5a1 1 0 0 0-1 1v5H7a1 1 0 0 0-1 1v10a8.947 8.947 0 0 0 3 6.69V44a1 1 0 0 0 1.8.6l2.2-2.933 2.2 2.933a1 1 0 0 0 .8.4 1.019 1.019 0 0 0 .316-.051A1 1 0 0 0 17 44V27.546a16.168 16.168 0 0 0 9.934 9.63A25.33 25.33 0 0 1 23.446 48H19a1 1 0 0 0-1 1v7h-2a1 1 0 0 0-1 1v6a1 1 0 0 0 1 1h32a1 1 0 0 0 1-1v-6a1 1 0 0 0-1-1h-2v-7a1 1 0 0 0-1-1h-4.446a25.33 25.33 0 0 1-3.488-10.824A16.168 16.168 0 0 0 47 27.546V44a1 1 0 0 0 1.8.6l2.2-2.933 2.2 2.933a1 1 0 0 0 .8.4 1.019 1.019 0 0 0 .316-.051A1 1 0 0 0 55 44V23.69A8.947 8.947 0 0 0 58 17V7a1 1 0 0 0-1-1zM11 17v-6h5v4.069a7.986 7.986 0 0 0-4.944 2.6A4.057 4.057 0 0 1 11 17zm4 5v19l-1.2-1.6a1.036 1.036 0 0 0-1.6 0L11 41V23a6.006 6.006 0 0 1 5-5.91V21a1 1 0 0 0-1 1zm32 40H17v-4h30zm6-51v6a4.078 4.078 0 0 1-.056.665A7.982 7.982 0 0 0 48 15.069V11zm0 30-1.2-1.6a1.036 1.036 0 0 0-1.6 0L49 41V22a1 1 0 0 0-1-1v-3.91A6.006 6.006 0 0 1 53 23z"/><path d="M42 4h2v2h-2zM39.948 15.03a1 1 0 0 0-.8-.671l-4.306-.659-1.937-4.125a1 1 0 0 0-1.81 0L29.158 13.7l-4.309.658a1 1 0 0 0-.565 1.687l3.148 3.225-.745 4.568a1 1 0 0 0 1.47 1.036L32 22.751l3.843 2.124a1 1 0 0 0 1.47-1.036l-.745-4.568 3.148-3.225a1 1 0 0 0 .232-1.016zm-5.164 3.206a1 1 0 0 0-.271.86l.5 3.032-2.525-1.395a1 1 0 0 0-.966 0l-2.525 1.395.495-3.032a1 1 0 0 0-.271-.86l-2.141-2.194 2.913-.445a1 1 0 0 0 .754-.564L32 12.354l1.258 2.679a1 1 0 0 0 .754.564l2.913.445zM27 52h10v2H27z"/></g></svg>