<svg xmlns="http://www.w3.org/2000/svg" viewBox="0 0 511.999 511.999" style="enable-background:new 0 0 511.999 511.999" xml:space="preserve"><path style="fill:#f4cf9d" d="M357.817 146.903s-73.901-38.49-113.93-32.332c-28.836 4.435-64.061-4.708-81.509-10.171-.999-.45-10.796-3.211-14.324 2.617a46.34 46.34 0 0 0-.678 1.589l-.002.003c-7.019 17.244-11.992 57.767 87.274 70.624 0 0 24.633 53.887 107.772 49.268v95.513h79.559V146.903h-64.162z"/><path style="fill:#efbf86" d="M421.978 324.015v-75.88c-33.301-19.885-56.643-59.683-88.81-50.416-39.313 11.327-98.521-18.485-98.521-18.485s24.633 53.887 107.772 49.268v95.513h79.559z"/><path style="fill:#88dce5" d="M447.843 125.445h-24.867c-6.804 0-12.318 5.514-12.318 12.317v185.789c0 6.803 5.514 12.317 12.318 12.317h24.867V125.445z"/><path style="fill:#e2b481" d="m161.093 294.744 122.029 110.833c8.899 8.084 22.668 7.421 30.752-1.481 7.534-8.295 7.464-20.814.213-29.024l.164.149c8.9 8.083 22.668 7.421 30.752-1.482 7.52-8.276 7.462-20.764.252-28.973 8.905 7.214 21.992 6.323 29.795-2.269 7.549-8.314 7.463-20.871.168-29.078 8.904 7.187 21.968 6.288 29.762-2.295 8.083-8.899 7.421-22.666-1.48-30.75L342.421 228.5s-72.363 3.541-107.772-49.268c0 0-58.106-7.097-84.404-34.951h-56.38v150.462h67.228v.001z"/><path style="fill:#f4cf9d" d="M106.986 307.597c-8.083-8.898-7.421-22.667 1.48-30.749l54.286-49.302c8.902-8.083 22.668-7.42 30.753 1.479 8.082 8.902 7.42 22.668-1.48 30.755l-54.286 49.3c-8.9 8.083-22.669 7.42-30.753-1.483z"/><path style="fill:#f4cf9d" d="M136.663 339.434c-8.082-8.899-7.42-22.668 1.48-30.751l54.285-49.301c8.902-8.085 22.669-7.42 30.753 1.477 8.086 8.903 7.423 22.67-1.48 30.754l-54.283 49.302c-8.903 8.084-22.67 7.422-30.755-1.481z"/><path style="fill:#f4cf9d" d="M168.879 368.39c-8.086-8.9-7.421-22.668 1.479-30.75l54.284-49.302c8.902-8.085 22.669-7.42 30.753 1.479 8.085 8.902 7.423 22.667-1.48 30.753l-54.284 49.301c-8.902 8.085-22.669 7.422-30.752-1.481z"/><path style="fill:#f4cf9d" d="m261.637 313.235-52.221 47.426c-8.902 8.082-9.564 21.85-1.48 30.75 7.21 7.943 18.937 9.308 27.704 3.773l52.221-47.426c8.902-8.086 9.563-21.85 1.48-30.754-7.211-7.938-18.938-9.302-27.704-3.769z"/><path style="fill:#efbf86" d="m124.958 289.547 54.285-49.301c5.083-4.617 11.756-6.368 18.05-5.373a21.737 21.737 0 0 0-3.788-5.846c-8.084-8.898-21.85-9.562-30.753-1.479l-54.286 49.302c-8.902 8.081-9.563 21.849-1.48 30.749a21.66 21.66 0 0 0 12.703 6.856c-3.685-8.341-1.854-18.443 5.269-24.908zM154.634 321.381l54.285-49.301c5.085-4.618 11.757-6.369 18.051-5.373a21.729 21.729 0 0 0-3.789-5.847c-8.083-8.898-21.85-9.563-30.753-1.477l-54.285 49.301c-8.9 8.082-9.563 21.85-1.48 30.751a21.667 21.667 0 0 0 12.705 6.854c-3.686-8.34-1.853-18.44 5.266-24.908zM186.849 350.338l54.284-49.301c5.085-4.618 11.757-6.369 18.052-5.373a21.731 21.731 0 0 0-3.79-5.845c-8.083-8.899-21.85-9.564-30.753-1.479l-54.284 49.302c-8.9 8.081-9.565 21.849-1.479 30.75a21.658 21.658 0 0 0 12.702 6.855c-3.686-8.342-1.853-18.443 5.268-24.909zM225.907 373.358l52.221-47.425c4.553-2.875 9.903-3.871 15.006-3.068-5.41-12.279-20.371-16.653-31.497-9.631l-52.221 47.426c-8.902 8.082-9.564 21.85-1.48 30.75 3.464 3.818 7.976 6.098 12.697 6.841-3.677-8.337-1.844-18.429 5.274-24.893z"/><path style="fill:#88dce5" d="M64.156 125.445h24.87c6.801 0 12.317 5.514 12.317 12.317v185.789c0 6.803-5.515 12.317-12.317 12.317h-24.87V125.445z"/><path style="fill:#4cc7d3" d="M89.026 230.656h-24.87v105.211h24.87c6.801 0 12.317-5.513 12.317-12.317V218.339c0 6.803-5.516 12.317-12.317 12.317zM422.974 230.656h24.87v105.211h-24.87c-6.801 0-12.317-5.513-12.317-12.317V218.339c-.001 6.803 5.516 12.317 12.317 12.317z"/><path style="fill:#6b6968" d="M7.646 345.106c0 6.802 5.515 12.317 12.318 12.317h33.872c6.802 0 12.318-5.514 12.318-12.317V113.032c0-6.803-5.515-12.318-12.318-12.318H19.964c-6.802 0-12.318 5.514-12.318 12.318v232.074z"/><path style="fill:#514e4c" d="M53.837 241.133H19.965c-6.802 0-12.318-5.515-12.318-12.317v116.291c0 6.802 5.515 12.317 12.318 12.317h33.872c6.802 0 12.318-5.514 12.318-12.317V228.815c0 6.802-5.516 12.318-12.318 12.318z"/><path style="fill:#6b6968" d="M504.353 345.106c0 6.802-5.514 12.317-12.318 12.317h-33.872c-6.802 0-12.318-5.514-12.318-12.317V113.032c0-6.803 5.515-12.318 12.318-12.318h33.872c6.804 0 12.318 5.514 12.318 12.318v232.074z"/><path style="fill:#514e4c" d="M492.035 241.133h-33.872c-6.802 0-12.318-5.515-12.318-12.317v116.291c0 6.802 5.515 12.317 12.318 12.317h33.872c6.802 0 12.318-5.514 12.318-12.317V228.815c0 6.802-5.516 12.318-12.318 12.318z"/><path d="M492.174 93.121h-33.893c-10.932 0-19.825 8.895-19.825 19.825v4.92h-15.382c-9.913 0-19.825 7.323-19.825 21.47h-43.564c-11.599-5.87-77.897-38.258-116.947-32.264-37.583 5.784-88.109-13.266-88.612-13.458a7.505 7.505 0 0 0-8.786 2.653c-.591.828-13.478 19.292-7.015 40.446h-29.621c-.514-10.477-9.175-18.849-19.776-18.849H73.543v-4.92c0-10.932-8.895-19.825-19.825-19.825H19.825C8.895 93.121 0 102.015 0 112.947v184.075c0 4.143 3.357 7.5 7.5 7.5s7.5-3.357 7.5-7.5V112.947a4.83 4.83 0 0 1 4.824-4.824h33.893a4.83 4.83 0 0 1 4.824 4.824V345.158a4.83 4.83 0 0 1-4.824 4.824H19.825a4.83 4.83 0 0 1-4.824-4.824v-21.799c0-4.143-3.357-7.5-7.5-7.5s-7.5 3.357-7.5 7.5v21.799c0 10.932 8.895 19.825 19.825 19.825h33.893c9.531 0 19.825-6.923 19.825-21.568h15.384c10.932 0 19.825-8.895 19.825-19.825v-5.028c4.447 2.487 9.488 3.787 14.815 3.696-1.613 18.288 13.726 33.534 32.102 31.7.077 20.532 20.633 34.266 39.413 27.341 3.131 20.636 26.601 31.637 44.549 20.31.904-.572.476-.279 14.025-12.584l24.439 22.193c19.333 17.56 49.963 2.82 48.962-22.823 18.009 1.087 32.289-13.847 31.095-31.236 17.325.547 31.328-14.122 30.067-31.389a29.316 29.316 0 0 0 15.031-3.712c0 14.074 10.025 21.357 19.825 21.357h15.382v1.743c0 10.932 8.895 19.825 19.825 19.825h33.893c10.932 0 19.825-8.895 19.825-19.825V112.947c-.001-10.932-8.896-19.826-19.827-19.826zM88.927 328.414H73.543V132.868h15.384a4.83 4.83 0 0 1 4.824 4.824V323.59a4.83 4.83 0 0 1-4.824 4.824zm23.524-25.828-.001-.002c-5.307-5.843-4.874-14.865.971-20.172l54.317-49.331c5.832-5.294 14.882-4.857 20.175.969 5.197 5.724 4.859 14.545-.668 19.876l-54.214 49.237c-.158.144-.307.294-.462.441-5.87 5.28-14.842 4.792-20.118-1.018zm26.001 21.567a14.184 14.184 0 0 1 4.368-9.592l54.209-49.229c.166-.151.322-.309.484-.462 5.833-5.219 14.824-4.768 20.095 1.035a14.193 14.193 0 0 1 3.694 10.291 14.181 14.181 0 0 1-2.372 7.199l-53.665 48.739a29.656 29.656 0 0 0-3.373 3.63c-9.547 8.022-24.032.741-23.44-11.611zm35.928 39.261c-.001 0-.001-.001 0 0-4.523-4.98-4.85-12.187-1.323-17.487l53.666-48.739a29.615 29.615 0 0 0 3.378-3.638 14.225 14.225 0 0 1 9.161-3.343c8.136 0 14.667 6.771 14.274 14.963a14.17 14.17 0 0 1-2.924 7.982l-46.267 42.016a29.736 29.736 0 0 0-2.592 2.679l-7.199 6.538c-5.801 5.267-14.832 4.914-20.174-.971zm56.741 25.812c-13.429 7.732-27.866-8.744-18.438-21.041l46.272-42.023a29.524 29.524 0 0 0 2.577-2.663l4.614-4.19a14.233 14.233 0 0 1 17.66 2.774c5.294 5.83 4.858 14.882-.97 20.177l-51.715 46.966zm148.877-81.608c-7.085-5.72-16.41 3.965-10.317 10.82a14.238 14.238 0 0 1-.115 19.068c-5.078 5.592-13.66 6.243-19.537 1.484-7.079-5.734-16.386 3.914-10.356 10.778 4.789 5.452 4.716 13.62-.171 18.999-5.057 5.569-13.965 6.589-20.348.813a7.501 7.501 0 0 0-10.655 10.528c4.818 5.454 4.756 13.637-.145 19.032-5.305 5.844-14.329 6.28-20.174.972l-23.367-21.22 28.111-25.528c21.581-19.604 4.115-55.284-24.419-50.576-.924-16.478-15.444-29.099-32.184-27.425-.062-16.277-13.426-29.408-29.83-29.111 2.35-26.497-29.159-42.143-48.836-24.275l-48.902 44.413V151.717h37.678c13.827 17.008 41.792 28.554 83.442 34.398 17.318 29.143 55.238 52.147 109.978 49.986l58.774 49.918a14.184 14.184 0 0 1 4.582 9.811c.585 12.204-13.607 19.54-23.209 11.788zm-37.944-86.622c-32.273 1.788-58.991-5.217-79.43-20.835-15.216-11.629-21.125-23.999-21.168-24.091a7.5 7.5 0 0 0-5.857-4.319c-43.694-5.66-98.76-21.952-80.666-61.937 15.386 5.181 56.348 17.272 90.086 12.087 37.163-5.727 108.675 31.216 109.393 31.59 2.243 1.168-.414.848 48.837.848v115.927c-60.049-51.003-57.074-49.494-61.195-49.27zm154.945 124.162a4.83 4.83 0 0 1-4.824 4.824h-33.893a4.83 4.83 0 0 1-4.824-4.824V177.023c0-4.143-3.357-7.5-7.5-7.5a7.499 7.499 0 0 0-7.5 7.5v151.391h-15.382a4.83 4.83 0 0 1-4.824-4.824V137.692a4.83 4.83 0 0 1 4.824-4.824h15.382v18.815c0 4.143 3.357 7.5 7.5 7.5s7.5-3.357 7.5-7.5v-38.736a4.83 4.83 0 0 1 4.824-4.824h33.893a4.83 4.83 0 0 1 4.824 4.824v232.211z"/></svg>