<svg xmlns="http://www.w3.org/2000/svg" viewBox="0 0 1000 1000" xml:space="preserve"><switch><g><circle fill="#382B73" cx="500" cy="500" r="398"/><circle fill="#473080" cx="500" cy="500" r="344.3"/><path fill="#382B73" d="M773 535.9v-2.7c-1.4-30-26.3-54-56.7-54-27 0-49.6 18.9-55.3 44.1h-93.2c2.5-3.8 4.4-8.8 5-14.5 1.1-9-1.2-17.2-5.3-21.5v-.2c0-.3.1-.6.1-.8 0-.2 0-.4.1-.6 0-.3.1-.6.1-.9 0-.2 0-.4.1-.6 0-.3.1-.6.1-.9 0-.2 0-.4.1-.6 0-.3.1-.7.1-1v-.5c0-.4.1-.8.1-1.2v-.7l50.8-50.8c9.2 6.9 20 10.6 31 11.1 1 0 1.9.1 2.9.1 14.5 0 29-5.5 40.1-16.6.7-.7 1.5-1.5 2.1-2.3.2-.2.4-.5.6-.8.5-.5.9-1.1 1.3-1.6.2-.3.5-.6.7-.9.4-.5.8-1 1.1-1.5.2-.3.5-.7.7-1 .3-.5.7-1 1-1.5.2-.3.4-.7.7-1 .3-.5.6-1 .9-1.6.2-.3.4-.7.6-1 .3-.6.6-1.1.9-1.7.2-.3.3-.7.5-1 .3-.6.6-1.3.9-1.9.1-.3.2-.5.3-.8.4-.9.7-1.8 1.1-2.8.3-.9.6-1.9.9-2.8.1-.3.2-.6.2-.8.2-.7.4-1.3.5-2 .1-.3.2-.7.2-1 .1-.6.3-1.2.4-1.8.1-.4.1-.7.2-1.1l.3-1.8c0-.4.1-.7.1-1.1.1-.6.1-1.2.2-1.8 0-.4.1-.7.1-1.1 0-.6.1-1.3.1-1.9v-4c-.6-13.7-6.1-27.1-16.6-37.6-22.2-22.2-58.1-22.2-80.2 0-10.4 10.4-15.9 23.9-16.6 37.6V384.4c0 .6 0 1.3.1 1.9 0 .4 0 .7.1 1.1 0 .6.1 1.2.2 1.8 0 .4.1.7.1 1.1l.3 1.8c.1.4.1.7.2 1.1.1.6.2 1.2.4 1.8.1.3.1.7.2 1 .2.7.3 1.3.5 2 .1.3.1.6.2.9.3.9.6 1.8.9 2.8.3.9.7 1.9 1.1 2.8.1.3.2.5.3.8.3.6.5 1.3.8 1.9.2.3.3.7.5 1 .3.6.6 1.1.9 1.7.2.4.4.7.6 1 .3.5.6 1 .9 1.6.2.4.4.7.7 1 .1.1.2.3.2.4l-3.6 3.6-35.8 35.8c0-.2-.1-.3-.1-.5 0-.1-.1-.3-.1-.4-.1-.4-.3-.8-.4-1.2-.7-1.9-1.5-3.5-2.4-5-.6-.9-1.1-1.7-1.8-2.5-.4-.5-.9-1-1.3-1.5-.4-.4-.8-.7-1.1-1.1-.6-.5-1.1-1-1.7-1.4-.6-.5-1.3-.9-1.9-1.3-.8-.5-1.7-1-2.6-1.4-3.9-1.8-7.9-2.6-11.1-3-.3 0-.6-.1-.9-.1H535c0-.1-.1-.3-.1-.4 0-.1 0-.1-.1-.2-.1-.2-.2-.5-.2-.7 0-.1 0-.1-.1-.2-.1-.4-.3-.8-.5-1.2v-.1c0-.1-.1-.1-.1-.2 0 0 0-.1-.1-.1-.1-.3-.3-.5-.4-.8 0 0 0-.1-.1-.1-.2-.4-.4-.8-.7-1.2 0-.1-.1-.1-.1-.2l-.1-.1v-.1l-.6-.9v-.1c-.3-.4-.6-.8-.9-1.1l-.2-.2s0-.1-.1-.1c-.6-.7-1.2-1.4-1.9-2.1l-.2-.2c-.4-.3-.8-.7-1.2-1l-.1-.1-1.2-.9c-.1-.1-.2-.1-.3-.2-.4-.3-.9-.6-1.4-1-.1-.1-.2-.1-.2-.2-.4-.3-.9-.6-1.3-.8-.1-.1-.2-.1-.3-.2-.5-.3-1-.6-1.6-.9-.1-.1-.2-.1-.4-.2-.5-.3-1-.5-1.6-.8-.1 0-.1-.1-.2-.1-.6-.3-1.2-.5-1.9-.8-.1-.1-.3-.1-.5-.2-.7-.3-1.3-.5-2-.8-1.3-.5-2.7-.9-4.2-1.3v-38.8c6.5-1.2 12.5-3.4 18.1-6.5 1-.6 1.9-1.1 2.8-1.7 2.6-1.7 5-3.5 7.3-5.6 1.3-1.2 2.6-2.5 3.8-3.8l1.8-2.1c8.1-9.8 13-22.4 13-36.1v-.4c0-.8 0-1.6-.1-2.3-1.4-30-26.3-54-56.7-54-30.4 0-55.2 23.9-56.7 54 0 .7 0 1.5-.1 2.2v.5c0 13.7 4.9 26.3 13 36.1l1.8 2.1c1.2 1.3 2.5 2.6 3.8 3.8 2.3 2.1 4.7 3.9 7.3 5.6.9.6 1.9 1.2 2.8 1.7 5.5 3.1 11.6 5.4 18.1 6.5v37.1c-15.6 1.3-33.1 8.9-43.9 30.4-.4.8-.8 1.7-1.2 2.6-.1.1-.1.3-.2.4-.4.8-.7 1.7-1.1 2.5-.1.2-.1.3-.2.5-.3.8-.7 1.7-1 2.6 0 .1-.1.2-.1.3-.3.8-.6 1.7-.8 2.5 0 .1-.1.2-.1.2-.3.9-.5 1.8-.8 2.6 0 .2-.1.3-.1.5-.1.5-.3 1.1-.4 1.6l-41.9-41.9-3.6-3.6c.1-.1.2-.3.2-.4.2-.3.4-.7.7-1 .3-.5.6-1 .9-1.6.2-.3.4-.7.6-1 .3-.6.6-1.1.9-1.7.2-.3.3-.7.5-1 .3-.6.6-1.3.9-1.9.1-.3.2-.5.3-.8.7-1.8 1.4-3.7 1.9-5.6.1-.3.1-.6.2-.8.2-.7.4-1.3.5-2 .1-.3.1-.7.2-1 .1-.6.3-1.2.4-1.9.1-.4.1-.7.2-1.1l.3-1.8c0-.4.1-.7.1-1.1.1-.6.1-1.2.2-1.8 0-.4.1-.7.1-1.1 0-.6.1-1.3.1-1.9V380.2c-.6-13.7-6.1-27.1-16.6-37.6-22.2-22.2-58.1-22.2-80.2 0-10.4 10.4-15.9 23.9-16.6 37.6v4c0 .7 0 1.3.1 2 0 .4 0 .7.1 1.1 0 .6.1 1.2.2 1.8 0 .4.1.7.1 1.1l.3 1.8c.1.4.1.7.2 1.1.1.6.2 1.2.4 1.8.1.3.1.7.2 1 .2.7.3 1.3.5 2 .1.3.1.6.2.8.3.9.6 1.9.9 2.8.3.9.7 1.9 1.1 2.8.1.3.2.5.3.8.3.6.6 1.3.8 1.9.2.3.3.7.5 1 .3.6.6 1.1.9 1.7.2.4.4.7.6 1 .3.5.6 1 .9 1.6.2.4.4.7.7 1.1.3.5.7 1 1 1.5.2.3.5.7.7 1 .4.5.7 1 1.1 1.5.2.3.5.6.7.9.4.5.9 1.1 1.3 1.6.2.3.4.5.7.8.7.8 1.4 1.5 2.1 2.2v.1c12.5 12.5 29.3 17.9 45.6 16.4 3.6-.3 7.2-1 10.7-2.1 3.5-1 6.9-2.4 10.2-4.2 2.6-1.4 5.1-2.9 7.5-4.7l50.9 50.8 5.1 5.1c-7.2 1.7-11.7 12.3-10.3 24.5.7 5.7 2.5 10.7 5 14.5H339c-5.7-25.3-28.3-44.1-55.3-44.1-30.4 0-55.2 23.9-56.7 54v2.8c0 31.3 25.4 56.7 56.7 56.7 28.8 0 52.6-21.5 56.2-49.3h105.4c2.3 8.1 5.4 15.9 9.8 22.7.7 1.1 1.4 2.1 2.2 3.2.2.3.4.6.7.9v17.9l12.1 9.8-12.1-9.8-11.7 13.8-64.6 21.8c-4.6 2-8.8 4.6-12.5 7.6-10.6 8.6-17.8 20.9-19.7 34.8l-8.6 61.7v.3c-.1.5-.1 1-.1 1.5v2.2c0 1.3.1 2.5.3 3.7.1.7.2 1.4.4 2.1 2.8 11.1 12.8 19.5 25 19.5h267.2c12.2 0 22.2-8.4 25-19.5.2-.7.3-1.4.4-2.1.2-1.2.3-2.5.3-3.7v-2.2c0-.5-.1-1-.1-1.5v-.3l-8.6-61.7c-1.9-13.6-8.8-25.8-19.1-34.3-3.9-3.2-8.3-6-13.1-8l-29.6-10v-.1l-11.5-3.9-22.9-7.7v.1l-.6-.2-11.7-13.8-12.1 9.8 12.1-9.8v-17.9c3.7-4.8 6.7-10.3 9-16.1.2-.6.5-1.2.7-1.8.5-1.2.9-2.5 1.3-3.7.2-.6.4-1.3.6-1.9.3-1 .6-2 .9-3.1h105.4c1 8 3.7 15.4 7.7 22 .5.8 1 1.5 1.5 2.3 4.1 6 9.3 11.2 15.3 15.3.8.5 1.5 1 2.3 1.5 8.6 5.2 18.6 8.2 29.4 8.2 13.5 0 25.9-4.7 35.6-12.6.9-.7 1.7-1.4 2.6-2.2 11.4-10.7 18.5-25.7 18.5-42.3z"/><g><path fill="#FFF" d="M283.7 503.3h432.6v20H283.7z"/><path fill="#E6E7E8" d="M283.7 513.3h432.6v10H283.7z"/><path fill="#FFF" d="M490 295.8h20v217.6h-20z"/><path fill="#FFF" d="M507.1 506.3 493 520.4 386.4 413.9 340 367.5l14.1-14.1 44.1 44.1z"/><path fill="#E6E7E8" d="m346.6 360.9 7.5-7.5-14.1 14.1 153 152.9 6.5-6.6z"/><path fill="#FFF" d="m660 367.5-46.3 46.4-106.6 106.5-14.1-14.1 152.9-152.9z"/><path fill="#E6E7E8" d="m500.19 513.474 152.875-152.875 6.93 6.93-152.876 152.874z"/><path fill="#D1D3D4" d="M573.1 503.3c.1 1.8 0 3.6-.2 5.5-.7 5.6-2.5 10.7-5 14.5H431.6c-2.5-3.8-4.4-8.8-5-14.5-.2-1.9-.3-3.8-.2-5.5h146.7z"/><g><path fill="#1CAEE4" d="M633.6 736.8H366.4c-15.6 0-27.6-13.8-25.5-29.3l8.6-61.7c2.6-18.8 14.8-34.8 32.2-42.4l29.7-10 11.5-3.9 22.9-7.7 12.2-4.1h84.2l76.2 25.7c17.4 7.5 29.6 23.6 32.2 42.4l8.6 61.7c2 15.5-10 29.3-25.6 29.3z"/><path fill="#27C1E6" d="M349.5 654.2c2.6-18.8 14.8-34.8 32.2-42.4l76.2-25.7h84.2l76.2 25.7c17.4 7.5 29.6 23.6 32.2 42.4l8.5 61c.4-2.5.5-5.1.1-7.7l-8.6-61.7c-2.6-18.8-14.8-34.8-32.2-42.4l-76.2-25.7h-84.2l-76.2 25.7c-17.4 7.5-29.6 23.6-32.2 42.4l-8.6 61.7c-.4 2.6-.3 5.2.1 7.7l8.5-61z"/><path fill="#009ADD" d="M658.3 701.6c-3.1 10.5-12.9 18.4-24.7 18.4H366.4c-11.8 0-21.5-7.9-24.7-18.4l-.8 5.9c-2.1 15.5 9.9 29.3 25.5 29.3h267.2c15.6 0 27.6-13.8 25.5-29.3l-.8-5.9z"/><path fill="#E6E7E8" d="m554.8 582.9-12.7-15L500 602l-42.1-34.1-12.7 15c-2.6 5.7-2.6 12.3.2 17.9l39.6 82.3 15.1 31.3 54.6-113.5c2.6-5.8 2.7-12.3.1-18z"/><path fill="#009ADD" d="m515.1 683.1-7.3-60.4h-15.6l-7.3 60.4 15.1 31.2z"/><path fill="#F7CB15" d="M457.9 527.9v40L500 602l42.1-34.1v-40z"/><path fill="#D1D3D4" d="m500 602-33.6 42.5-21-43.7c-2.7-5.7-2.8-12.2-.2-18l12.7-15L500 602zM500 602l33.6 42.5 21-43.7c2.7-5.7 2.8-12.2.2-18l-12.7-15L500 602z"/><path fill="#27C1E6" d="m515.4 621.6-10.8 10.8c-2.6 2.6-6.7 2.6-9.3 0l-10.8-10.8c-2.6-2.6-2.6-6.7 0-9.3l6.1-6.1c5.2-5.2 13.5-5.2 18.7 0l6.1 6.1c2.5 2.6 2.5 6.7 0 9.3z"/><path fill="#1CAEE4" d="m513.1 610-8.9 8.9c-2.3 2.3-6.1 2.3-8.4 0l-8.9-8.9-2.7 2.7c-2.3 2.3-2.3 6.1 0 8.4l11.6 11.6c2.3 2.3 6.1 2.3 8.4 0l11.6-11.6c2.3-2.3 2.3-6.1 0-8.4l-2.7-2.7z"/><path fill="#F7CB15" d="M500 708.8z"/><path fill="#009ADD" d="M445.4 609.2c-2-4.2-2.6-8.9-1.7-13.3-.3-1.6-.5-3.2-.4-4.8l-20.5 6.9-11.5 3.9c-1.4 3.4-2.1 9.6 1.4 20.6 6.5 20.8 9 26.4 9 26.4l18.2-2-11.8 15.8s11.1 17 24.4 32C469 713 500 722.8 500 722.8l-15.1-31.3-39.5-82.3z"/><path fill="#009ADD" d="m500 714.3-2.4-4.9h-3.1v11.1h11v-11.1h-3.1z"/><path fill="#27C1E6" d="M500 714.4s-31-9.8-47.4-28.2c-13.4-15-24.4-32-24.4-32l11.8-15.8-18.2 2s-2.5-5.6-9-26.4c-3.4-11-2.8-17.2-1.4-20.6l11.5-3.9 22.9-7.7-.5 1.1c-2.6 5.7-2.6 12.3.2 17.9l39.6 82.3 14.9 31.3z"/><path fill="#F7CB15" d="M500 708.8z"/><path fill="#009ADD" d="m588.7 601.8-11.5-3.9-20.5-6.9c.1 1.6-.1 3.2-.4 4.8.9 4.5.4 9.2-1.6 13.4l-39.6 82.3-15.1 31.2s31-9.8 47.4-28.2c13.4-15 24.4-32 24.4-32L560 646.7l18.2 2s2.5-5.6 9-26.4c3.5-10.9 2.9-17.1 1.5-20.5z"/><path fill="#27C1E6" d="M500 714.3s31-9.8 47.4-28.2c13.4-15 24.4-32 24.4-32L560 638.3l18.2 2s2.5-5.6 9-26.4c3.4-11 2.8-17.2 1.4-20.6l-11.5-3.9-22.9-7.7.5 1.1c2.6 5.7 2.6 12.3-.2 17.9L515.1 683 500 714.3z"/><g><path fill="#FFF335" d="M560.3 474.9c0 35.6-6.5 94.8-60.3 94.8s-60.3-59.2-60.3-94.8 5.6-64.5 60.3-64.5 60.3 28.8 60.3 64.5z"/><path fill="#FEDE3A" d="M500 552.9c-49.8 0-59.1-50.6-60.2-86.4-.1 2.7-.1 5.5-.1 8.4 0 35.6 6.5 94.8 60.3 94.8s60.3-59.2 60.3-94.8c0-2.8 0-5.6-.1-8.4-1.1 35.8-10.4 86.4-60.2 86.4z"/><ellipse transform="rotate(-6.686 440.36 487.078)" fill="#FFF335" cx="440.5" cy="487.2" rx="14.1" ry="23.2"/><ellipse transform="rotate(-83.316 558.944 487.192)" fill="#FFF335" cx="558.9" cy="487.2" rx="23.2" ry="14.1"/><g fill="#FEDE3A"><path d="M442.6 489.1c-.8-6.6-.6-12.8.3-17.8h-1c-6.1.7-10.2 8.7-9.1 17.7 1.1 9.1 6.9 15.8 13 15.1.1 0 .3-.1.4-.1-1.7-4.1-2.9-9.3-3.6-14.9zM557.4 489.1c.8-6.6.6-12.8-.3-17.8h1c6.1.7 10.2 8.7 9.1 17.7-.4 3.6-1.6 7.3-3.8 10.2-.9 1.2-2 2.4-3.3 3.3-.9.6-2.8 1.8-3.9 1.6.1-.8 0-1.6-.3-2.3l-.3-.6c-.7-1.7.3-4 .7-5.7.5-2 .8-4.2 1.1-6.4z"/></g><path fill="#1CAEE4" d="M530.5 437.2s-13 20.1-35.5 21.9c-22.5 1.9-38.4 3.2-44.7 14.3-6.3 11.1.2 32.1-4.8 32.1s-16.7-48 .6-82.6c17.3-34.6 52-33.3 68-27.4 16.1 5.9 21.3 15.1 21.3 24.7.1 9.6-4.9 17-4.9 17z"/><path fill="#009ADD" d="M524 400.3c2.2 3.6 3.1 7.5 3.1 11.5 0 9.6-4.9 17-4.9 17s-13 20.1-35.5 21.9c-22.5 1.9-38.4 3.2-44.7 14.3-3.9 6.9-2.9 17.5-2.8 24.6 1.9 9.6 4.5 15.9 6.3 15.9 5 0-1.4-20.9 4.8-32.1 6.3-11.1 22.2-12.5 44.7-14.3 22.5-1.9 35.5-21.9 35.5-21.9s4.9-7.4 4.9-17c.1-7.2-2.9-14.3-11.4-19.9z"/><path fill="#1CAEE4" d="M534.7 414s23.4-2.6 30.6 17.2c9.5 26.1-4.6 73-8.8 73s1.4-23-5-43.6-21.8-22.2-21.8-22.2l5-24.4z"/><path fill="#009ADD" d="M559.8 452.3c-6.4-20.6-21.8-22.2-21.8-22.2l3.3-16c-3.9-.4-6.7-.1-6.7-.1l-5 24.5s15.4 1.6 21.8 22.2c6.4 20.6.7 43.6 5 43.6 1.5 0 4.2-5.8 6.7-14.5-.2-8.2 1.1-23.5-3.3-37.5z"/><path fill="#27C1E6" d="M447.8 427.2c17.3-34.6 52-33.3 68-27.4 10 3.7 15.8 8.6 18.8 14.2-2-7.2-8-13.8-20.5-18.4-16.1-5.9-50.8-7.1-68 27.4-14.9 29.8-8.3 69.5-3 79.9-4.7-14.5-8.6-49.1 4.7-75.7zM565.2 431.2c-7.2-19.8-30.6-17.2-30.6-17.2l-.8 4.1c5.5-.1 22.9.7 28.9 17.3 7.7 21.2-.1 56.1-5.6 68.5 4.9-4.2 17.1-47.8 8.1-72.7z"/><path fill="#FEDE3A" d="M500 516.9c-5 0-9.2-2.7-10.4-6.4-.2.7-.3 1.3-.3 2.1 0 4.7 4.8 8.5 10.7 8.5s10.7-3.8 10.7-8.5c0-.7-.1-1.4-.3-2.1-1.2 3.7-5.4 6.4-10.4 6.4z"/></g><path fill="#FFF" d="m500 602-36.5 36.5-18.1-37.7c-2.7-5.7-2.8-12.2-.2-18l12.7-15L500 602zM500 602l36.5 36.5 18.1-37.7c2.7-5.7 2.8-12.2.2-18l-12.7-15L500 602z"/></g><g><path fill="#D1D3D4" d="M510 295.8v69.7c-3.3.6-6.6.9-10 .9s-6.8-.3-10-.9v-69.7h20z"/><circle fill="#FFF" cx="500" cy="299.6" r="56.7"/><path fill="#E6E7E8" d="M500 345.3c-29.5 0-53.7-22.5-56.5-51.2-.2 1.8-.3 3.6-.3 5.5 0 31.3 25.4 56.7 56.7 56.7s56.7-25.4 56.7-56.7c0-1.9-.1-3.7-.3-5.5-2.6 28.8-26.8 51.2-56.3 51.2z"/><path fill="#E6E7E8" d="M484.9 324.2v.1c0 1.3 1.5 2.2 2.7 1.4l11.4-8.3c.6-.4 1.4-.4 2 0l11.4 8.3c1.2.9 2.7-.1 2.7-1.4V318.9c0-.2 0-.4-.1-.6l-3.3-10.2 11-8c.5-.4.7-.9.7-1.4V293.3c0-.9-.6-1.7-1.7-1.7h-14.1c-.7 0-1.4-.5-1.6-1.2l-4.4-13.4c-.5-1.6-2.7-1.6-3.2 0l-4.4 13.4c-.2.7-.9 1.2-1.6 1.2h-14.1c-1.1 0-1.7.9-1.7 1.7V298.7c0 .5.2 1.1.7 1.4l11 8-3.3 10.2c-.1.2-.1.4-.1.6v5.3z"/><path fill="#E43D91" d="M484.9 318.7v.1c0 1.3 1.5 2.2 2.7 1.4l11.4-8.3c.6-.4 1.4-.4 2 0l11.4 8.3c1.2.9 2.7-.1 2.7-1.4V313.4c0-.2 0-.4-.1-.6l-3.3-10.2 11-8c.5-.4.7-.9.7-1.4V287.8c0-.9-.6-1.7-1.7-1.7h-14.1c-.7 0-1.4-.5-1.6-1.2l-4.4-13.4c-.5-1.6-2.7-1.6-3.2 0l-4.4 13.4c-.2.7-.9 1.2-1.6 1.2h-14.1c-1.1 0-1.7.9-1.7 1.7V293.2c0 .5.2 1.1.7 1.4l11 8-3.3 10.2c-.1.2-.1.4-.1.6v5.3z"/><path fill="#EF5A9D" d="m501.6 271.5 4.4 13.4c.2.7.9 1.2 1.6 1.2h14.1c1.6 0 2.3 2.1 1 3.1l-11.4 8.3c-.6.4-.8 1.2-.6 1.9l4.4 13.4c.5 1.6-1.3 2.9-2.6 1.9l-11.4-8.3c-.6-.4-1.4-.4-2 0l-11.4 8.3c-1.3 1-3.1-.3-2.6-1.9l4.4-13.4c.2-.7 0-1.5-.6-1.9l-11.4-8.3c-1.3-1-.6-3.1 1-3.1h14.1c.7 0 1.4-.5 1.6-1.2l4.4-13.4c.3-1.6 2.5-1.6 3 0z"/></g><g><path fill="#D1D3D4" d="m660 367.5-46.3 46.3c-.3-.3-.6-.5-.8-.8-4.7-4.7-8.4-9.9-11.1-15.6l44.1-44.1 14.1 14.2z"/><circle fill="#FFF" cx="652.9" cy="363" r="56.7"/><path fill="#E6E7E8" d="M693.1 392.1c-22.2 22.2-58.1 22.2-80.2 0-9.7-9.7-15.1-22-16.3-34.6-1.6 16.3 3.9 33.1 16.3 45.6 22.2 22.2 58.1 22.2 80.2 0 12.5-12.5 17.9-29.3 16.3-45.6-1.2 12.6-6.7 24.9-16.3 34.6z"/><path fill="#E6E7E8" d="M637.8 389v.1c0 1.3 1.5 2.2 2.7 1.4l11.4-8.3c.6-.4 1.4-.4 2 0l11.4 8.3c1.2.9 2.7-.1 2.7-1.4V383.7c0-.2 0-.4-.1-.6l-3.3-10.2 11-8c.5-.4.7-.9.7-1.4V358.1c0-.9-.6-1.7-1.7-1.7h-14.1c-.7 0-1.4-.5-1.6-1.2l-4.4-13.4c-.5-1.6-2.7-1.6-3.2 0l-4.4 13.4c-.2.7-.9 1.2-1.6 1.2h-14.1c-1.1 0-1.7.9-1.7 1.7V363.5c0 .5.2 1.1.7 1.4l11 8-3.3 10.2c-.1.2-.1.4-.1.6v5.3z"/><path fill="#E43D91" d="M637.8 383.5v.1c0 1.3 1.5 2.2 2.7 1.4l11.4-8.3c.6-.4 1.4-.4 2 0l11.4 8.3c1.2.9 2.7-.1 2.7-1.4V378.2c0-.2 0-.4-.1-.6l-3.3-10.2 11-8c.5-.4.7-.9.7-1.4V352.6c0-.9-.6-1.7-1.7-1.7h-14.1c-.7 0-1.4-.5-1.6-1.2l-4.4-13.4c-.5-1.6-2.7-1.6-3.2 0l-4.4 13.4c-.2.7-.9 1.2-1.6 1.2h-14.1c-1.1 0-1.7.9-1.7 1.7V358c0 .5.2 1.1.7 1.4l11 8-3.3 10.2c-.1.2-.1.4-.1.6v5.3z"/><path fill="#EF5A9D" d="m654.6 336.3 4.4 13.4c.2.7.9 1.2 1.6 1.2h14.1c1.6 0 2.3 2.1 1 3.1l-11.4 8.3c-.6.4-.8 1.2-.6 1.9l4.4 13.4c.5 1.6-1.3 2.9-2.6 1.9l-11.4-8.3c-.6-.4-1.4-.4-2 0l-11.4 8.3c-1.3 1-3.1-.3-2.6-1.9l4.4-13.4c.2-.7 0-1.5-.6-1.9l-11.4-8.3c-1.3-1-.6-3.1 1-3.1h14.1c.7 0 1.4-.5 1.6-1.2l4.4-13.4c.2-1.6 2.5-1.6 3 0z"/></g><g><path fill="#D1D3D4" d="M398.2 397.5c-2.7 5.6-6.4 10.9-11.1 15.6l-.8.8-46.3-46.4 14.1-14.1 44.1 44.1z"/><circle fill="#FFF" cx="347.1" cy="363" r="56.7"/><path fill="#E6E7E8" d="M387.2 392.1c-22.2 22.2-58.1 22.2-80.2 0-9.7-9.7-15.1-22-16.3-34.6-1.6 16.3 3.9 33.1 16.3 45.6 22.2 22.2 58.1 22.2 80.2 0 12.5-12.5 17.9-29.3 16.3-45.6-1.2 12.6-6.7 24.9-16.3 34.6z"/><path fill="#E6E7E8" d="M331.9 389v.1c0 1.3 1.5 2.2 2.7 1.4l11.4-8.3c.6-.4 1.4-.4 2 0l11.4 8.3c1.2.9 2.7-.1 2.7-1.4V383.7c0-.2 0-.4-.1-.6l-3.3-10.2 11-8c.5-.4.7-.9.7-1.4V358.1c0-.9-.6-1.7-1.7-1.7h-14.1c-.7 0-1.4-.5-1.6-1.2l-4.4-13.4c-.5-1.6-2.7-1.6-3.2 0l-4.4 13.4c-.2.7-.9 1.2-1.6 1.2h-14.1c-1.1 0-1.7.9-1.7 1.7V363.5c0 .5.2 1.1.7 1.4l11 8-3.3 10.2c-.1.2-.1.4-.1.6v5.3z"/><path fill="#E43D91" d="M331.9 383.5v.1c0 1.3 1.5 2.2 2.7 1.4l11.4-8.3c.6-.4 1.4-.4 2 0l11.4 8.3c1.2.9 2.7-.1 2.7-1.4V378.2c0-.2 0-.4-.1-.6l-3.3-10.2 11-8c.5-.4.7-.9.7-1.4V352.6c0-.9-.6-1.7-1.7-1.7h-14.1c-.7 0-1.4-.5-1.6-1.2l-4.4-13.4c-.5-1.6-2.7-1.6-3.2 0l-4.4 13.4c-.2.7-.9 1.2-1.6 1.2h-14.1c-1.1 0-1.7.9-1.7 1.7V358c0 .5.2 1.1.7 1.4l11 8-3.3 10.2c-.1.2-.1.4-.1.6v5.3z"/><path fill="#EF5A9D" d="m348.7 336.3 4.4 13.4c.2.7.9 1.2 1.6 1.2h14.1c1.6 0 2.3 2.1 1 3.1l-11.4 8.3c-.6.4-.8 1.2-.6 1.9l4.4 13.4c.5 1.6-1.3 2.9-2.6 1.9l-11.4-8.3c-.6-.4-1.4-.4-2 0l-11.4 8.3c-1.3 1-3.1-.3-2.6-1.9l4.4-13.4c.2-.7 0-1.5-.6-1.9l-11.4-8.3c-1.3-1-.6-3.1 1-3.1h14.1c.7 0 1.4-.5 1.6-1.2l4.4-13.4c.2-1.6 2.5-1.6 3 0z"/></g><g><circle transform="rotate(-45.001 283.7 515.908)" fill="#FFF" cx="283.7" cy="515.9" r="56.7"/><path fill="#E6E7E8" d="M283.7 561.6c-29.5 0-53.7-22.5-56.5-51.2-.2 1.8-.3 3.6-.3 5.5 0 31.3 25.4 56.7 56.7 56.7 31.3 0 56.7-25.4 56.7-56.7 0-1.9-.1-3.7-.3-5.5-2.6 28.8-26.8 51.2-56.3 51.2z"/><path fill="#E6E7E8" d="M268.6 541.8v.1c0 1.3 1.5 2.2 2.7 1.4l11.4-8.3c.6-.4 1.4-.4 2 0l11.4 8.3c1.2.9 2.7-.1 2.7-1.4V536.5c0-.2 0-.4-.1-.6l-3.3-10.2 11-8c.5-.4.7-.9.7-1.4V510.9c0-.9-.6-1.7-1.7-1.7h-14.1c-.7 0-1.4-.5-1.6-1.2l-4.4-13.4c-.5-1.6-2.7-1.6-3.2 0l-4.4 13.4c-.2.7-.9 1.2-1.6 1.2H262c-1.1 0-1.7.9-1.7 1.7V516.3c0 .5.2 1.1.7 1.4l11 8-3.3 10.2c-.1.2-.1.4-.1.6v5.3z"/><path fill="#E43D91" d="M268.6 536.3v.1c0 1.3 1.5 2.2 2.7 1.4l11.4-8.3c.6-.4 1.4-.4 2 0l11.4 8.3c1.2.9 2.7-.1 2.7-1.4V531c0-.2 0-.4-.1-.6l-3.3-10.2 11-8c.5-.4.7-.9.7-1.4V505.4c0-.9-.6-1.7-1.7-1.7h-14.1c-.7 0-1.4-.5-1.6-1.2l-4.4-13.4c-.5-1.6-2.7-1.6-3.2 0l-4.4 13.4c-.2.7-.9 1.2-1.6 1.2H262c-1.1 0-1.7.9-1.7 1.7V510.8c0 .5.2 1.1.7 1.4l11 8-3.3 10.2c-.1.2-.1.4-.1.6v5.3z"/><path fill="#EF5A9D" d="m285.3 489.1 4.4 13.4c.2.7.9 1.2 1.6 1.2h14.1c1.6 0 2.3 2.1 1 3.1l-11.4 8.3c-.6.4-.8 1.2-.6 1.9l4.4 13.4c.5 1.6-1.3 2.9-2.6 1.9l-11.4-8.3c-.6-.4-1.4-.4-2 0l-11.4 8.3c-1.3 1-3.1-.3-2.6-1.9L273 517c.2-.7 0-1.5-.6-1.9l-11.4-8.3c-1.3-1-.6-3.1 1-3.1h14.1c.7 0 1.4-.5 1.6-1.2l4.4-13.4c.5-1.6 2.7-1.6 3.2 0z"/></g><g><circle transform="rotate(-45.001 716.293 515.913)" fill="#FFF" cx="716.3" cy="515.9" r="56.7"/><path fill="#E6E7E8" d="M716.3 561.6c-29.5 0-53.7-22.5-56.5-51.2-.2 1.8-.3 3.6-.3 5.5 0 31.3 25.4 56.7 56.7 56.7 31.3 0 56.7-25.4 56.7-56.7 0-1.9-.1-3.7-.3-5.5-2.6 28.8-26.8 51.2-56.3 51.2z"/><path fill="#E6E7E8" d="M701.2 541.8v.1c0 1.3 1.5 2.2 2.7 1.4l11.4-8.3c.6-.4 1.4-.4 2 0l11.4 8.3c1.2.9 2.7-.1 2.7-1.4V536.5c0-.2 0-.4-.1-.6l-3.3-10.2 11-8c.5-.4.7-.9.7-1.4V510.9c0-.9-.6-1.7-1.7-1.7h-14.1c-.7 0-1.4-.5-1.6-1.2l-4.4-13.4c-.5-1.6-2.7-1.6-3.2 0l-4.4 13.4c-.2.7-.9 1.2-1.6 1.2h-14.1c-1.1 0-1.7.9-1.7 1.7V516.3c0 .5.2 1.1.7 1.4l11 8-3.3 10.2c-.1.2-.1.4-.1.6v5.3z"/><path fill="#E43D91" d="M701.2 536.3v.1c0 1.3 1.5 2.2 2.7 1.4l11.4-8.3c.6-.4 1.4-.4 2 0l11.4 8.3c1.2.9 2.7-.1 2.7-1.4V531c0-.2 0-.4-.1-.6l-3.3-10.2 11-8c.5-.4.7-.9.7-1.4V505.4c0-.9-.6-1.7-1.7-1.7h-14.1c-.7 0-1.4-.5-1.6-1.2l-4.4-13.4c-.5-1.6-2.7-1.6-3.2 0l-4.4 13.4c-.2.7-.9 1.2-1.6 1.2h-14.1c-1.1 0-1.7.9-1.7 1.7V510.8c0 .5.2 1.1.7 1.4l11 8-3.3 10.2c-.1.2-.1.4-.1.6v5.3z"/><path fill="#EF5A9D" d="m717.9 489.1 4.4 13.4c.2.7.9 1.2 1.6 1.2H738c1.6 0 2.3 2.1 1 3.1l-11.4 8.3c-.6.4-.8 1.2-.6 1.9l4.4 13.4c.5 1.6-1.3 2.9-2.6 1.9l-11.4-8.3c-.6-.4-1.4-.4-2 0l-11.4 8.3c-1.3 1-3.1-.3-2.6-1.9l4.4-13.4c.2-.7 0-1.5-.6-1.9l-11.4-8.3c-1.3-1-.6-3.1 1-3.1h14.1c.7 0 1.4-.5 1.6-1.2l4.4-13.4c.3-1.6 2.5-1.6 3 0z"/></g></g></g></switch></svg>