<svg xmlns="http://www.w3.org/2000/svg" xml:space="preserve" width="655.359" height="655.359" style="shape-rendering:geometricPrecision;text-rendering:geometricPrecision;image-rendering:optimizeQuality;fill-rule:evenodd;clip-rule:evenodd" viewBox="0 0 6.827 6.827"><defs><clipPath id="id0"><path d="M3.413 0a3.413 3.413 0 1 1 0 6.827 3.413 3.413 0 0 1 0-6.827z"/></clipPath><style>.fil5{fill:#212121}.fil13{fill:#272727}.fil9{fill:#757575}.fil1{fill:#d32f2f}.fil3{fill:#dbc0b2}.fil6{fill:#eccebe}.fil12{fill:#3b210f;fill-rule:nonzero}</style></defs><g id="Layer_x0020_1"><path d="M3.413 0a3.413 3.413 0 1 1 0 6.827 3.413 3.413 0 0 1 0-6.827z" style="fill:#ef5350"/><g style="clip-path:url(#id0)"><g id="_435556480"><path id="_4318598241" class="fil1" d="M6.346 5.849zM2.56 2.062z"/><path id="_431859776" class="fil1" d="m4.37 1.755 3.786 3.786-.343.075L4.027 1.83z"/><path id="_433401928" class="fil1" d="m4.027 1.83 3.786 3.786v.254L4.027 2.084z"/><path id="_433401856" class="fil1" d="M4.027 2.084 7.813 5.87h-.001l-.001.001h-.002L4.022 2.087h.001l.001-.001h.002z"/><path id="_433401952" class="fil1" d="M4.022 2.086 7.81 5.872l.01.015.01.017.01.017.009.018.008.018.007.02.007.019.006.02.006.02.005.022.005.021.004.022.003.022.003.022.003.023.002.023.002.023.001.023.001.023V6.374l-.002.023v.022l-.002.022-.002.022-.002.02-.002.022-.003.02-.002.02L4.11 2.759l.002-.02.002-.02.003-.021.002-.022.001-.021.002-.022.001-.022.001-.023v-.023l.001-.022v-.069l-.001-.024-.001-.023-.002-.022-.002-.023-.003-.023-.003-.022-.004-.022-.004-.022-.004-.022-.005-.02-.006-.021-.006-.02-.007-.02-.007-.02-.009-.018-.008-.017-.01-.017-.01-.017z"/><path id="_433401472" class="fil1" d="M4.205 2.76 7.99 6.546l.004.004.003.005.003.004.003.005.003.006.002.005.002.006.002.006.002.006.002.007.001.007.001.007v.007l.001.007v.039l-.002.008-.001.008-.002.009-.002.008-.002.008-.002.009-.003.008L4.22 2.94l.003-.008.002-.009.002-.008.002-.009.002-.008v-.008l.002-.008v-.008l.001-.008v-.03l-.001-.008-.001-.007-.002-.006-.001-.007-.002-.006-.002-.006-.002-.006-.002-.006-.003-.005-.003-.005-.003-.004-.003-.005z"/><path id="_433402336" class="fil1" d="M2.844 1.837 6.63 5.623l-.197-.043-3.786-3.786z"/><path id="_433402264" class="fil1" d="m4.07 3.072 3.787 3.786h-.002l-.002-.001-.002-.001-.003-.001-.002-.001-.002-.002h-.002l-.001-.002-3.787-3.786h.002l.002.002.002.001.002.001.002.001.002.001.003.001z"/><path id="_433402288" class="fil1" d="m2.59 1.781 3.786 3.787-.12-.027-3.787-3.786z"/><path id="_433402624" class="fil1" d="M2.56 2.062 6.346 5.85v.003l.001.004v.008l.001.003v.008l.001.004v.011l.001.004v.008l.001.004v.004L2.565 2.124v-.012l-.001-.004v-.012l-.001-.003v-.008l-.001-.004v-.007L2.56 2.07v-.004z"/><path id="_433402360" class="fil1" d="m2.508 2.247 3.787 3.786-.035.054-3.787-3.786z"/><path id="_433402456" class="fil1" d="m3.711 3.626 3.787 3.787v.09L3.71 3.717z"/><path id="_433401424" class="fil1" d="m2.547 2.247 3.787 3.786-.017.054-3.786-3.786z"/><path id="_433400968" class="fil1" d="m2.585 2.247 3.786 3.786-.009.054-3.786-3.786z"/><path id="_433401232" class="fil1" d="M2.565 2.124 6.352 5.91l.07.177-3.786-3.786z"/><path id="_433401400" class="fil1" d="m2.576 2.301 3.786 3.786h-.015L2.561 2.301z"/><path id="_433400704" class="fil1" d="m2.636 2.301 3.786 3.786h-.018L2.618 2.301z"/><path id="_433400896" class="fil1" d="m3.115 3.504 3.787 3.787-.012-.009-.011-.008-.012-.008-.011-.009-.011-.008-.012-.009-.01-.009-.011-.008-.011-.009-.01-.009-.011-.008-.01-.009-.01-.008-.01-.009-.01-.008-.009-.009-.009-.008-.009-.008-.008-.008-.008-.008L2.91 3.335l.008.008.009.008.009.009.009.008.01.008.009.009.01.008.01.009.01.009.01.008.01.009.011.009.011.008.011.009.011.008.012.009.01.008.012.009.012.008z"/><path id="_433400680" class="fil1" d="m3.837 5.071 3.786 3.786-.005.01-.006.009-.007.01-.006.009-.007.009-.008.01-.008.008-.008.01-.01.008-.009.01-.01.008-.01.009-.01.008-.012.008-.012.008-.013.008-.013.007-.013.007-.014.007-.015.006-.015.006-.016.006-.016.005-.017.004-.017.005-.018.003-.019.004-.02.002-.02.002-.02.002-.02.001h-.022L3.42 5.28h.022l.021-.001.02-.002.02-.002.02-.003.018-.003.018-.004.018-.004.017-.005.016-.005.016-.005.015-.006.015-.007.014-.006.013-.007.013-.008.012-.007.012-.008.012-.008.01-.009.011-.008.01-.009.01-.009.008-.009.009-.009.008-.01.007-.008.008-.01.006-.009.006-.01.006-.009z"/><path id="_433400800" class="fil1" d="m3.42 5.28 3.787 3.786H7.2L3.413 5.279h.005l.001.001z"/><path id="_433400824" class="fil1" d="M3.413 5.28 7.2 9.065h-.007L3.406 5.28h.007z"/><path id="_433400872" class="fil1" d="m2.99 5.071 3.786 3.786-1.218.092-3.786-3.787z"/><path id="_430492488" class="fil1" d="m3.406 5.28 3.787 3.786H7.17l-.021-.001-.02-.002-.02-.002-.02-.002-.018-.004-.018-.003-.018-.005-.017-.004-.016-.005-.016-.006-.015-.006-.015-.006-.014-.007-.013-.007-.013-.007-.012-.008-.012-.008-.012-.008-.01-.008-.011-.009-.01-.009-3.786-3.786.01.009.01.008.01.009.012.008.012.008.013.007.013.008.013.007.014.006.015.007.015.006.016.005.016.005.017.005.017.004.018.004.019.003.02.003.02.002.02.002h.02z"/><path id="_430492416" class="fil1" d="M1.772 5.162 5.558 8.95h-.02l-.01-.003-.01-.002-.008-.004-.009-.004-.008-.005-.007-.006-3.787-3.786.008.006.008.005.009.004.008.003.01.003.01.002h.01z"/><path id="_430492176" class="fil1" d="m2.772 3.062 3.786 3.786-.002.002-.002.001-.002.002-.003.001-.002.001-.003.001-.002.001-.003.001-3.786-3.786h.003l.002-.002.003-.001.002-.001.002-.002.003-.001.002-.002z"/><path id="_430492032" class="fil1" d="M2.753 3.072 6.54 6.858l-.005.002H6.53l-.005.001H6.51l-.006-.002-.005-.001-.005-.002-.005-.003-.006-.002-.005-.003-.005-.004-.005-.003-.006-.004-.005-.005-.005-.004L2.665 3.04l.005.005.005.004.005.004.006.004.005.004.005.003.005.002.006.002.005.002.005.002.005.001h.006l.005.001h.01l.005-.002z"/><path id="_430491864" class="fil1" d="M5.055 5.162 8.841 8.95l-1.218-.092-3.786-3.786z"/><path id="_430492320" class="fil1" d="M2.647 1.794 6.433 5.58l-.01.005-.008.005-.009.005-.007.006-.007.006-.007.006-.006.006-.005.007-.005.007-.005.007-.004.007-.003.008-.004.008-.002.008-.003.008-.002.009-.001.008-.002.01v.008l-.002.01V5.782l.001.01v.011l.002.011v.011l.002.011v.012L2.56 2.062v-.011l-.002-.011v-.011l-.001-.011-.001-.01v-.011l-.001-.01v-.05l.001-.01.001-.008.001-.01.002-.008.002-.008.002-.009.003-.008.003-.007.004-.008.004-.007.004-.007.005-.007.006-.007.006-.006.006-.006.007-.006.008-.006.008-.005.01-.005z"/><path id="_430492536" class="fil1" d="m4.22 2.939 3.786 3.786-.003.009L8 6.742l-.003.008-.004.008-.003.007-.004.008-.004.007-.004.007-.005.006-.004.007-.005.006-.004.006-.005.005-.005.006-.005.005-.005.004-.005.005-.005.004-.005.003-.005.004-.006.003-.005.002-.005.003-.006.002-.005.001-.005.001-.005.001h-.016l-.005-.001-.005-.002-3.786-3.786.005.001.005.001h.005l.005.001h.005l.006-.001.005-.001.005-.002.005-.002.006-.002.005-.003.005-.002.005-.004.006-.004.005-.004.005-.004.005-.005.005-.005.005-.005.005-.005.004-.006.005-.006.004-.007.004-.006.005-.007.004-.008.004-.007.003-.007.004-.008.003-.008.003-.009z"/><path id="_430492080" class="fil1" d="M2.845 2.084 6.63 5.871 2.843 2.083z"/><path id="_430491840" class="fil1" d="m2.531 2.301 3.786 3.786H6.3L2.513 2.301z"/><path id="_430492104" class="fil1" d="m3.988 3.254 3.787 3.787-.004.005-.004.006-.005.006-.005.006-.006.007-.006.006-.006.007-.007.007-.006.008-.008.007-.007.008-.008.008-.009.008-.008.008-.009.008-.009.008-.01.009-.009.008-.01.009-.01.008-.01.009-.01.008-.01.01-.011.008-.011.008-.011.01-.011.008-.012.008-.011.009-.011.008-.012.008-.011.009L3.71 3.504l.012-.008.011-.008.012-.009.011-.008.011-.009.011-.008.011-.009.011-.008.011-.01.01-.008.01-.008.011-.01.01-.008.01-.008.01-.009.009-.008.009-.008.009-.009.008-.008.008-.008.008-.007.008-.008.007-.008.007-.007.007-.007.006-.007.006-.007.005-.006.006-.006.004-.006.005-.006z"/><path id="_430492560" class="fil1" d="M2.473 2.301 6.26 6.087h-.012L2.46 2.301z"/><path id="_430492728" class="fil1" d="m3.711 3.504 3.787 3.787v.122L3.71 3.626z"/><path id="_430492608" class="fil1" d="m4.569 4.191 3.786 3.787.008.008.007.009.008.01.007.01.007.012.006.012.007.012.007.014.006.014.006.015.007.015.006.016.006.016.006.017.005.018.006.018.006.018.005.019.006.02.005.019.005.02.005.02.005.02.006.022.005.02.004.022.005.022.005.022.005.022.005.022.004.022L4.75 4.718l-.005-.022-.004-.022-.005-.022-.005-.022-.005-.022-.005-.021-.005-.022-.005-.02-.005-.021-.005-.02-.005-.02-.006-.02-.005-.02-.006-.018-.005-.019-.006-.018-.006-.017-.006-.017-.006-.017-.006-.015-.006-.016-.006-.014-.007-.014-.006-.014-.007-.013-.007-.012-.007-.011-.007-.01-.007-.01-.007-.01z"/><path id="_430492680" class="fil1" d="m4.849 4.77 3.786 3.786.002.009.002.008.002.009.002.008.002.008.002.007.002.008.002.007.002.007.002.007.003.007.002.006.002.006.003.006.002.006.002.006.003.006.002.005.003.005.002.005.003.005.002.005.003.004.002.005.003.004.002.004.003.004.003.003.002.004.003.004.002.003.003.003-3.787-3.786-.002-.003-.003-.004-.002-.003-.003-.004-.002-.004-.003-.003-.002-.005-.003-.004-.002-.004-.003-.005-.002-.004-.003-.005-.002-.005-.003-.005-.002-.006-.003-.005-.002-.006-.003-.006-.002-.006-.002-.006-.003-.007-.002-.006-.002-.007-.002-.007-.002-.008-.003-.007-.002-.008-.002-.007-.002-.009-.001-.008-.002-.008z"/><path id="_430492704" class="fil1" d="m4.841 4.73 3.786 3.786.008.04L4.85 4.77z"/><path id="_430492872" class="fil1" d="m5.161 5.071 3.787 3.786-.002.01-.002.01-.003.01-.004.008-.005.009-.005.007-.006.007-.007.007-.008.006-.008.005-.008.004-.01.004-.009.002-.01.002h-.02L5.055 5.163h.02l.01-.002.01-.002.008-.004.009-.004.008-.005.007-.006.007-.007.007-.007.005-.008.005-.008.004-.009.003-.01.002-.009z"/><path id="_430491720" class="fil1" d="m5.131 4.992 3.786 3.786.007.007.006.008.005.008.004.008.004.01.002.009.002.01v.02L5.162 5.07v-.02l-.002-.01-.003-.009-.003-.009-.004-.008-.006-.009L5.138 5z"/><path id="_430491648" class="fil1" d="M4.054 3.063 7.841 6.85l-.003.009-.002.009-.002.009-.003.009-.002.008-.003.008-.002.009-.002.008-.003.007-.002.008-.002.007-.002.007-.003.007-.002.007-.002.006-.002.007-.003.006-.002.006-.002.005-.002.005-.002.005-.002.005-.002.005-.002.004-.001.004-.002.004-.002.003-.002.004-.001.003-.002.002-.001.003-.001.002-3.787-3.787.002-.002.001-.002.002-.003.001-.003.002-.003.001-.003L4 3.234l.002-.004.002-.004.002-.005.002-.005.002-.005.002-.005.002-.006.002-.006.002-.006.002-.006.003-.006.002-.007.002-.007.003-.007.002-.007.002-.008.003-.008.002-.008.002-.008.003-.008.002-.009.002-.008.003-.01.002-.008z"/><path id="_435556408" class="fil1" d="M2.56 2.062zm.86-.515.95.208-.343.075v.254l-.005.002c.12.162.115.464.088.673.023-.017.047-.023.07-.016.052.018.07.105.04.196-.03.09-.097.15-.15.133a.06.06 0 0 1-.016-.009.804.804 0 0 1-.066.191 1.315 1.315 0 0 1-.277.25v.213c.603.265.778.403.85.467.083.074.139.296.19.534l.05.006.04.006.008.04c.018.094.048.15.074.184h.013l.134.01a.1.1 0 0 1-.015.198l-1.218-.09c-.056.097-.181.208-.417.208h-.014c-.235 0-.36-.11-.416-.209l-1.219.091a.1.1 0 0 1-.014-.197l.161-.012.001-.002a.43.43 0 0 0 .072-.181L2 4.73l.041-.005.036-.005c.05-.239.106-.462.19-.536.01-.009.022-.02.038-.032.078-.062.232-.165.574-.327.07-.034.149-.07.237-.108v-.213a1.316 1.316 0 0 1-.277-.25.81.81 0 0 1-.066-.192.06.06 0 0 1-.019.01c-.052.017-.12-.042-.149-.133-.03-.09-.012-.178.04-.196.026-.008.055.002.081.024a1.485 1.485 0 0 1-.002-.046c-.023-.225-.013-.462.122-.637h-.001v-.247l-.197-.043c-.106.05-.097.147-.087.268l.005.062.07.177h-.017l-.033-.054-.01.054h-.014l-.014-.054-.016.054h-.018l-.005-.054-.035.054h-.012l.064-.176c0-.02-.003-.04-.004-.06-.01-.12-.02-.22.068-.284l-.12-.026.95-.208z"/></g></g><path d="M3.413 0a3.413 3.413 0 1 1 0 6.827 3.413 3.413 0 0 1 0-6.827z" style="fill:none"/><path class="fil3" d="M2.645 2.743c.052-.017.12.043.149.133.03.091.012.179-.04.196-.053.017-.12-.042-.15-.133-.03-.09-.012-.178.04-.196zM4.18 2.743c-.053-.017-.12.043-.15.133-.03.091-.012.179.04.196.053.017.12-.042.15-.133.03-.09.012-.178-.04-.196z"/><path d="M3.136 3.707c-.614.27-.798.413-.87.477-.113.1-.175.47-.241.783h2.777c-.067-.314-.129-.684-.24-.783-.073-.064-.25-.204-.864-.473l-.562-.004z" style="fill:#fdc"/><path class="fil5" d="M3.136 3.707c-.614.27-.798.413-.87.477-.113.1-.175.47-.241.783h2.777c-.067-.314-.129-.684-.24-.783-.073-.064-.25-.204-.864-.473l-.562-.004z"/><path class="fil6" d="M3.711 3.171v.68c-.164.2-.432.194-.596 0v-.68c0-.367.596-.367.596 0z"/><path d="M3.711 3.171v.455c-.112.083-.221.129-.298.129-.076 0-.185-.046-.298-.129v-.455c0-.367.596-.367.596 0z" style="fill:#dfc4b6"/><path class="fil6" d="M3.413 1.95c-1 0-.64 1.208-.575 1.304.072.106.414.388.575.388.162 0 .503-.282.575-.388.066-.096.425-1.304-.575-1.304z"/><path d="M2.956 2.354c-.058.317-.203.288-.191.66-.047-.29-.117-.676.08-.93.158-.203.68-.348 1.017-.105.373.08.256.84.206.983-.035-.233-.113-.33-.212-.603-.134.096-.728.118-.9-.005z" style="fill:#293439"/><path class="fil9" d="M2.59 4.967h.048l-.002-.364-.045.364zM4.236 4.967h-.048l.002-.364.046.364z"/><path d="M3.11 3.215c.202.072.435.06.606 0-.056.257-.499.263-.606 0z" style="fill:#e4b7a0"/><path d="m3.115 3.851.13 1.116h.336l.13-1.116v-.13a.894.894 0 0 1-.138.083.39.39 0 0 1-.16.045.395.395 0 0 1-.164-.047.9.9 0 0 1-.134-.082v.131z" style="fill:#eee"/><path class="fil5" d="m3.453 3.978.093.99h1.256c-.067-.315-.129-.685-.24-.784-.073-.064-.248-.202-.85-.467l-.26.261zM3.115 3.717c-.597.263-.778.403-.85.467-.112.1-.174.47-.24.783h1.274l.047-.986-.23-.256a.025.025 0 0 1-.001-.008zM2.844 1.772c.394.15.789.134 1.183 0v.312c-.42.142-.816.152-1.183 0v-.312z"/><path class="fil12" d="M2.578 4.71v.014l.09-.013h-.09z"/><path class="fil13" transform="scale(1.77993 .3903) rotate(-45 6.121 .574)" d="M0 0h.755v.755H0z"/><path d="M2.661 1.788c-.12.047-.112.148-.1.274.003.04.006.08.006.126h-.04c0-.042-.003-.083-.006-.122-.013-.143-.022-.257.126-.315l.014.037z" style="fill:#272727;fill-rule:nonzero"/><path class="fil13" d="M2.526 2.124h.04l.07.177h-.018l-.033-.054-.01.054h-.014l-.014-.054-.016.054h-.018l-.005-.054-.035.054h-.012z"/><path class="fil12" d="m5.07 4.965-.134-.01-1.187-.084a.099.099 0 0 0-.008.002c-.033.128-.171.224-.337.224-.164 0-.3-.093-.336-.219l-1.149.073-.001.002-.161.012a.1.1 0 1 0 .015.197l1.218-.09c.055.097.18.208.416.208h.014c.236 0 .361-.11.417-.209l1.218.091a.099.099 0 1 0 .015-.197z"/><path d="M3.068 4.878a.258.258 0 0 0 .046.09c.061.077.168.13.29.13a.367.367 0 0 0 .29-.13.257.257 0 0 0 .047-.095.099.099 0 0 1 .008-.002l1.187.084-.013-.001a.421.421 0 0 1-.074-.184l-.008-.04-.04-.006c-.005 0-.451-.055-.803-.13-.296-.062-.468.052-.529.104a.376.376 0 0 0-.049.05.378.378 0 0 0-.05-.05c-.06-.052-.232-.166-.527-.104-.353.075-.798.13-.803.13L2 4.73l-.009.04a.43.43 0 0 1-.072.181l1.15-.073z" style="fill:#43a047"/></g></svg>