<svg version="1.1" id="Layer_1" xmlns="http://www.w3.org/2000/svg" x="0" y="0" viewBox="0 0 256 256" style="enable-background:new 0 0 256 256" xml:space="preserve"><style>.st0{fill:#382b73}.st2{fill:#f6ca14}.st3{fill:#e7ad27}.st5{fill:#fddd3a}.st7{fill:#009add}.st12{fill:#d0d2d3}.st13{fill:#fff}.st14{fill:#0099dc}.st15{fill:#1cade3}.st17{fill:#106ea0}</style><switch><g><circle class="st0" cx="128" cy="128" r="120"/><circle cx="128" cy="128" r="102.5" style="fill:#473080"/><path class="st0" d="M195.675 124.643h-28.026l.008-23.562v.013l.001-1.777a8.855 8.855 0 0 0-2.751-6.43l-.013-.012a8.913 8.913 0 0 0-1.27-1.004l-.129-.083a8.843 8.843 0 0 0-4.72-1.357h-1.341c.37-1.883.565-3.829.565-5.82 0-16.568-13.431-30-30-30s-30 13.432-30 30c0 1.985.193 3.924.561 5.801l-38.215-.013a8.854 8.854 0 0 0-1.5.126c-4.192.712-7.385 4.36-7.387 8.755l-.001 1.777v-.006l-.018 53.485a8.885 8.885 0 0 0 8.881 8.887l28.039.009v25.352a9.115 9.115 0 0 0 .227 2.007 9.005 9.005 0 0 0 .744 2.039l.1.19a8.883 8.883 0 0 0 7.812 4.649h98.43a8.885 8.885 0 0 0 8.884-8.884V133.53a8.88 8.88 0 0 0-8.881-8.887z"/><g><path class="st2" d="m158.752 156.454-98.43-.033a8.884 8.884 0 0 1-8.881-8.887l.018-55.255a8.884 8.884 0 0 1 8.887-8.881l98.43.033a8.883 8.883 0 0 1 8.881 8.887l-.018 55.255a8.885 8.885 0 0 1-8.887 8.881z"/><path class="st3" d="m158.752 154.677-98.43-.033a8.884 8.884 0 0 1-8.881-8.887l-.001 1.777a8.885 8.885 0 0 0 8.881 8.887l98.43.033a8.885 8.885 0 0 0 8.887-8.881l.001-1.777c-.001 4.906-3.98 8.882-8.887 8.881z"/><path d="m158.776 83.43-98.43-.033a8.885 8.885 0 0 0-8.887 8.881l-.001 1.777a8.883 8.883 0 0 1 8.887-8.881l98.43.033a8.884 8.884 0 0 1 8.881 8.887l.001-1.777a8.884 8.884 0 0 0-8.881-8.887z" style="fill:#fff235"/><path class="st3" d="M51.456 92.298h116.198v16.936H51.456z"/><path class="st5" d="m155.743 123.894-93.859-.031a3.058 3.058 0 1 1 .002-6.116l93.859.031a3.057 3.057 0 1 1-.002 6.116zM117.85 138.255l-55.97-.019a3.058 3.058 0 1 1 .002-6.116l55.97.019a3.058 3.058 0 1 1-.002 6.116z"/><g><path d="M195.675 190.667h-98.43a8.884 8.884 0 0 1-8.884-8.884v-55.255a8.884 8.884 0 0 1 8.884-8.884h98.43a8.883 8.883 0 0 1 8.884 8.884v55.255a8.884 8.884 0 0 1-8.884 8.884z" style="fill:#1caee4"/><path class="st7" d="M195.675 188.89h-98.43a8.884 8.884 0 0 1-8.884-8.884v1.777a8.884 8.884 0 0 0 8.884 8.884h98.43a8.884 8.884 0 0 0 8.884-8.884v-1.777a8.884 8.884 0 0 1-8.884 8.884z"/><path d="M195.675 117.643h-98.43a8.883 8.883 0 0 0-8.884 8.884v1.777a8.885 8.885 0 0 1 8.884-8.884h98.43a8.884 8.884 0 0 1 8.884 8.884v-1.777a8.884 8.884 0 0 0-8.884-8.884z" style="fill:#27c1e6"/><path class="st7" d="M110.734 151.637h-9.476a3.554 3.554 0 0 1-3.554-3.554v-9.476a3.554 3.554 0 0 1 3.554-3.554h9.476a3.554 3.554 0 0 1 3.554 3.554v9.476a3.555 3.555 0 0 1-3.554 3.554z"/><path class="st5" d="M110.734 150.926h-9.476a3.554 3.554 0 0 1-3.554-3.554v-9.476a3.554 3.554 0 0 1 3.554-3.554h9.476a3.554 3.554 0 0 1 3.554 3.554v9.476a3.555 3.555 0 0 1-3.554 3.554z"/><path class="st2" d="M102.442 139.081h7.107v7.107h-7.107z"/><path class="st2" d="M97.704 139.081h16.583v.711H97.704zM97.704 145.477h16.583v.711H97.704z"/><path transform="rotate(-90 102.797 142.634)" class="st2" d="M94.505 142.279h16.584v.711H94.505z"/><path transform="rotate(-90 109.194 142.634)" class="st2" d="M100.902 142.279h16.584v.711h-16.584z"/><path class="st5" d="M113.195 169.378H98.796a3.058 3.058 0 1 1 0-6.116h14.398a3.057 3.057 0 1 1 .001 6.116z"/><g><path class="st5" d="M139.682 169.378h-14.398a3.058 3.058 0 1 1 0-6.116h14.398a3.058 3.058 0 0 1 0 6.116z"/></g><g><path class="st5" d="M166.169 169.378H151.77a3.058 3.058 0 1 1 0-6.116h14.398a3.057 3.057 0 1 1 .001 6.116z"/></g><g><path class="st5" d="M192.656 169.378h-14.398a3.058 3.058 0 1 1 0-6.116h14.398a3.058 3.058 0 0 1 0 6.116z"/></g><g><path class="st5" d="M154.767 180.987h-55.97a3.058 3.058 0 1 1 0-6.116h55.97a3.058 3.058 0 1 1 0 6.116z"/></g><g><path class="st5" d="M194.529 142.634a9.335 9.335 0 1 1-18.67 0 9.335 9.335 0 0 1 18.67 0z"/></g><g><path class="st5" d="M179.555 142.634a9.335 9.335 0 1 1-18.67 0 9.335 9.335 0 0 1 18.67 0z"/></g></g><path class="st3" d="M98.054 83.41c.931 15.73 13.982 28.2 29.946 28.2 15.957 0 29.004-12.459 29.945-28.18l-59.891-.02z"/><g><circle cx="128" cy="77.609" r="30" style="fill:#ef5a9d"/><path d="m147.658 93.661-.001-.005a3.53 3.53 0 0 0-.016-.101l-.001-.008-.016-.087-.005-.025-.018-.081-.006-.027-.018-.072-.01-.038-.031-.106-3.544-11.548-.039-.121a3.444 3.444 0 0 0-2.455-2.225 3.532 3.532 0 0 0-.372-.068l-5.918-.781a.694.694 0 0 0-.171-.559l-1.672-1.863a.696.696 0 0 0-.785-.178l-.105.043v-1.634c1.729-1.129 3.09-2.961 3.812-5.173.049.013.099.023.15.03.933.131 1.824-.719 1.989-1.898.165-1.179-.457-2.241-1.39-2.371a1.42 1.42 0 0 0-.195-.013 4.955 4.955 0 0 0-.007-.125l-.007-.107a5.77 5.77 0 0 0-.01-.131l-.01-.11-.013-.131-.012-.104-.016-.129-.015-.11-.017-.117-.018-.116-.019-.113-.02-.112a4.108 4.108 0 0 0-.023-.118l-.021-.102-.026-.122-.023-.101a19.36 19.36 0 0 0-.027-.113l-.026-.104-.032-.117-.026-.096-.031-.106a3.34 3.34 0 0 0-.032-.107l-.02-.062a7.088 7.088 0 0 0-.086-.258l-.028-.08-.038-.103a3.91 3.91 0 0 0-.037-.098l-.047-.118-.029-.073-.05-.117a2.633 2.633 0 0 0-.034-.078l-.051-.112-.034-.074-.056-.114-.035-.071a5.628 5.628 0 0 0-.056-.109l-.04-.075-.059-.109-.035-.061a6.983 6.983 0 0 0-.067-.117l-.033-.055c-.023-.04-.048-.079-.072-.118l-.03-.047-.078-.122-.027-.04a5.647 5.647 0 0 0-.086-.127l-.01-.014a7.784 7.784 0 0 0-1.112-1.275l-.002-.001a7.865 7.865 0 0 0-2.474-1.539l-.033-.012-.175-.066a.868.868 0 0 0-.047-.016l-.161-.055a7.199 7.199 0 0 0-.214-.068l-.06-.018-.158-.045-.058-.016-.182-.046-.033-.008a8.2 8.2 0 0 0-.446-.094l-.047-.008a5.39 5.39 0 0 0-.401-.062 2.184 2.184 0 0 0-.08-.01l-.144-.017-.088-.009a.088.088 0 0 1-.016-.002h-.004l-.12-.011-.092-.007-.105-.007-.066-.004-.059-.003-.066-.003-.106-.004-.059-.002-.029-.001a13.604 13.604 0 0 0-.418 0l-.065.002a7.216 7.216 0 0 0-.147.005l-.096.005a4.51 4.51 0 0 0-.204.014l-.124.01-.085.008-.123.013a2.574 2.574 0 0 0-.092.011l-.113.014-.102.015-.103.015-.104.018-.099.017-.105.02-.097.019-.104.023-.095.021-.11.026-.086.022-.111.029-.085.023a3.53 3.53 0 0 0-.192.057l-.114.036a5.309 5.309 0 0 0-.381.134l-.074.028a13.329 13.329 0 0 0-.299.123l-.063.028-.122.055-.055.026a4.584 4.584 0 0 0-.122.059l-.055.028a7.622 7.622 0 0 0-.127.065l-.043.023-.128.07-.046.026-.129.075a.602.602 0 0 1-.034.02l-.137.084-.025.016a6.9 6.9 0 0 0-.142.092l-.017.012-.147.1a.055.055 0 0 0-.008.006l-.152.109-.002.001c-1.899 1.404-3.168 3.682-3.322 6.648-.065 0-.13.004-.194.013-.933.131-1.556 1.192-1.39 2.371.165 1.179 1.055 2.029 1.988 1.898.051-.007.101-.017.15-.03.722 2.212 2.082 4.044 3.812 5.173v1.634l-.105-.043a.697.697 0 0 0-.785.178l-1.672 1.863a.691.691 0 0 0-.171.559l-5.918.781a3.485 3.485 0 0 0-1.289.434 3.45 3.45 0 0 0-.767.601c-.028.03-.056.059-.083.09a3.451 3.451 0 0 0-.727 1.289l-3.544 11.548a4.378 4.378 0 0 0-.031.108l-.004.015a3.326 3.326 0 0 0-.027.103l-.022.1-.003.013a1.618 1.618 0 0 0-.018.096l-.001.008a3.4 3.4 0 0 0-.047.693l.005.101a3.718 3.718 0 0 0 .092.593l.025.096a3.496 3.496 0 0 0 .391.899c.223.361.511.681.85.941.052.04.106.078.16.116.546.37 1.208.589 1.934.589h31.592a3.435 3.435 0 0 0 3.042-1.816 3.422 3.422 0 0 0 .361-1.02l.017-.098c.015-.099.026-.199.032-.3l.005-.101a3.47 3.47 0 0 0-.031-.585z" style="fill:#e43d91"/><path class="st3" d="M124.396 69.185h8.078v8.078h-8.078z"/><path class="st2" d="M121.825 64.308c.165 1.179-.457 2.241-1.39 2.371-.933.131-1.823-.719-1.989-1.898-.165-1.179.457-2.241 1.39-2.371.933-.131 1.824.719 1.989 1.898zM135.045 64.308c-.165 1.179.457 2.241 1.39 2.371s1.823-.719 1.989-1.898c.165-1.179-.457-2.241-1.39-2.371-.933-.131-1.824.719-1.989 1.898z"/><path class="st5" d="M136.856 63.013c0 5.543-3.77 10.037-8.421 10.037s-8.421-4.494-8.421-10.037 3.77-8.869 8.421-8.869c4.651-.001 8.421 3.325 8.421 8.869z"/><path class="st2" d="M128.435 72.179c-4.528 0-8.22-4.26-8.412-9.6a12.36 12.36 0 0 0-.009.434c0 5.543 3.77 10.037 8.421 10.037s8.421-4.494 8.421-10.037c0-.146-.004-.291-.009-.434-.193 5.34-3.884 9.6-8.412 9.6z"/><path class="st2" d="M136.833 63.711c-.281-4.766-3.452-7.737-7.477-8.13a7.937 7.937 0 0 0 7.384 9.083c.044-.312.074-.63.093-.953z"/><path d="M144.231 95.229h-31.592c-2.325 0-3.987-2.249-3.305-4.472l3.544-11.548a3.457 3.457 0 0 1 2.867-2.415l12.69-1.675 12.69 1.675a3.457 3.457 0 0 1 2.867 2.415l3.544 11.548c.682 2.223-.98 4.472-3.305 4.472z" style="fill:#e6e7e8"/><path class="st12" d="m130.736 79.137-1.791 1.791a.72.72 0 0 1-1.02 0l-1.791-1.791a.72.72 0 0 1 0-1.02l1.791-1.791a.72.72 0 0 1 1.02 0l1.791 1.791a.72.72 0 0 1 0 1.02z"/><path class="st13" d="m109.334 92.151 3.544-11.548a3.457 3.457 0 0 1 2.867-2.415l12.69-1.675 12.69 1.675a3.457 3.457 0 0 1 2.867 2.415l3.544 11.548c.033.108.059.216.081.323a3.435 3.435 0 0 0-.081-1.716l-3.544-11.548a3.457 3.457 0 0 0-2.867-2.415l-12.69-1.676-12.69 1.676a3.458 3.458 0 0 0-2.867 2.415l-3.544 11.548a3.435 3.435 0 0 0-.081 1.716 3.39 3.39 0 0 1 .081-.323z"/><path class="st12" d="m128.435 75.128-2.737 3.833a.89.89 0 0 1-1.393.07l-2.649-3.017 6.779-.886zM128.435 75.128l2.737 3.833a.89.89 0 0 0 1.393.07l2.649-3.017-6.779-.886zM147.41 90.347a3.45 3.45 0 0 1-3.179 2.097h-31.592a3.45 3.45 0 0 1-3.179-2.097l-.126.411c-.682 2.223.98 4.471 3.305 4.471h31.592c2.325 0 3.987-2.249 3.305-4.471l-.126-.411z"/><path class="st2" d="M120.014 63.013c0 .456.028.904.077 1.344a9.547 9.547 0 0 0 12.011-9.222c0-.074-.004-.147-.005-.221a8.8 8.8 0 0 0-3.662-.77c-4.651-.001-8.421 3.325-8.421 8.869z"/><path class="st14" d="M120.024 62.568a7.94 7.94 0 0 0 11.205-7.991 9.004 9.004 0 0 0-2.794-.434c-4.525 0-8.215 3.149-8.411 8.425z"/><path class="st15" d="M128.435 55.536c.98 0 1.919.149 2.794.434l.006.078c.02-.23.032-.462.032-.698 0-.261-.014-.519-.038-.773a9.004 9.004 0 0 0-2.794-.434c-4.525 0-8.215 3.149-8.411 8.425.043.02.088.037.132.056.719-4.466 4.151-7.088 8.279-7.088z"/><path class="st15" d="M129.356 54.189a7.939 7.939 0 0 0 7.494 9.091c.002-.089.006-.178.006-.267 0-5.173-3.283-8.413-7.5-8.824z"/><path d="M129.356 55.582c3.901.38 7 3.183 7.443 7.695l.051.003c.002-.089.006-.178.006-.267 0-5.172-3.283-8.413-7.5-8.824a7.943 7.943 0 0 0-.053 1.858c.013-.156.031-.311.053-.465z" style="fill:#23c1e6"/><path class="st13" d="M131.51 78.194c.24.239.618.271.894.075l2.518-1.785a.696.696 0 0 0 .113-1.031l-1.672-1.863a.696.696 0 0 0-.785-.178l-4.144 1.715 3.076 3.067z"/><path class="st13" d="M125.36 78.194a.696.696 0 0 1-.894.075l-2.519-1.785a.696.696 0 0 1-.112-1.031l1.672-1.863a.696.696 0 0 1 .785-.178l4.144 1.715-3.076 3.067z"/><path class="st14" d="m125.286 95.229 2.156-17.479h1.986l2.157 17.479z"/><path class="st12" d="M137.84 85.724h-5.051a.698.698 0 0 1 0-1.396h5.051a.699.699 0 0 1 0 1.396zM114.682 95.229l1.501-8.299c.056-.312.506-.302.55.011l1.153 8.288h-3.204zM142.189 95.229l-1.501-8.299c-.056-.312-.506-.302-.55.011l-1.153 8.288h3.204z"/><path class="st17" d="m127.173 80.454.752.752a.72.72 0 0 0 1.02 0l.752-.752-.269-2.704h-1.986l-.269 2.704z"/><path class="st15" d="m130.736 78.441-1.791 1.791a.72.72 0 0 1-1.02 0l-1.791-1.791a.72.72 0 0 1 0-1.02l1.791-1.791a.72.72 0 0 1 1.02 0l1.791 1.791a.72.72 0 0 1 0 1.02z"/><path class="st2" d="m129.31 67.992-.655.655a.311.311 0 0 1-.441 0l-.655-.655a.312.312 0 0 1 .22-.532h1.31c.278 0 .418.336.221.532z"/><path class="st17" d="m125.626 92.474-.34 2.755h6.299l-.34-2.755z"/></g></g></g></switch></svg>